<mxfile host="app.diagrams.net" modified="2024-01-18T13:59:14.594Z" agent="Mozilla/5.0 (Macintosh; Intel Mac OS X 10_15_7) AppleWebKit/537.36 (KHTML, like Gecko) Chrome/120.0.0.0 Safari/537.36" etag="7vxGKqw-izDcaEn0gI56" version="22.1.17" type="device" pages="8">
  <diagram name="conceptual" id="bdLx2JXkv08kS9B4quFy">
    <mxGraphModel dx="2534" dy="786" grid="1" gridSize="10" guides="1" tooltips="1" connect="1" arrows="1" fold="1" page="1" pageScale="1" pageWidth="1100" pageHeight="850" math="0" shadow="0">
      <root>
        <mxCell id="0" />
        <mxCell id="1" parent="0" />
        <mxCell id="5mEqQLxHZBrKdi8CqGOv-11" style="edgeStyle=orthogonalEdgeStyle;rounded=0;orthogonalLoop=1;jettySize=auto;html=1;endArrow=none;endFill=0;jumpStyle=arc;" parent="1" source="5mEqQLxHZBrKdi8CqGOv-1" target="5mEqQLxHZBrKdi8CqGOv-3" edge="1">
          <mxGeometry relative="1" as="geometry" />
        </mxCell>
        <mxCell id="5mEqQLxHZBrKdi8CqGOv-16" style="rounded=0;orthogonalLoop=1;jettySize=auto;html=1;endArrow=none;endFill=0;jumpStyle=arc;" parent="1" source="5mEqQLxHZBrKdi8CqGOv-1" target="5mEqQLxHZBrKdi8CqGOv-12" edge="1">
          <mxGeometry relative="1" as="geometry" />
        </mxCell>
        <mxCell id="5mEqQLxHZBrKdi8CqGOv-1" value="Data Catalog" style="rounded=0;whiteSpace=wrap;html=1;" parent="1" vertex="1">
          <mxGeometry x="280" y="160" width="120" height="60" as="geometry" />
        </mxCell>
        <mxCell id="5mEqQLxHZBrKdi8CqGOv-18" style="rounded=0;orthogonalLoop=1;jettySize=auto;html=1;endArrow=none;endFill=0;jumpStyle=arc;" parent="1" source="5mEqQLxHZBrKdi8CqGOv-2" target="5mEqQLxHZBrKdi8CqGOv-12" edge="1">
          <mxGeometry relative="1" as="geometry" />
        </mxCell>
        <mxCell id="5mEqQLxHZBrKdi8CqGOv-2" value="Data Lineage" style="rounded=0;whiteSpace=wrap;html=1;" parent="1" vertex="1">
          <mxGeometry x="280" y="440" width="120" height="60" as="geometry" />
        </mxCell>
        <mxCell id="5mEqQLxHZBrKdi8CqGOv-15" style="edgeStyle=orthogonalEdgeStyle;rounded=0;orthogonalLoop=1;jettySize=auto;html=1;endArrow=none;endFill=0;jumpStyle=arc;" parent="1" source="5mEqQLxHZBrKdi8CqGOv-3" target="5mEqQLxHZBrKdi8CqGOv-12" edge="1">
          <mxGeometry relative="1" as="geometry" />
        </mxCell>
        <mxCell id="5mEqQLxHZBrKdi8CqGOv-3" value="Data Discoverability" style="rounded=0;whiteSpace=wrap;html=1;" parent="1" vertex="1">
          <mxGeometry x="520" y="160" width="120" height="60" as="geometry" />
        </mxCell>
        <mxCell id="5mEqQLxHZBrKdi8CqGOv-5" style="edgeStyle=orthogonalEdgeStyle;rounded=0;orthogonalLoop=1;jettySize=auto;html=1;endArrow=none;endFill=0;jumpStyle=arc;" parent="1" source="5mEqQLxHZBrKdi8CqGOv-4" target="5mEqQLxHZBrKdi8CqGOv-1" edge="1">
          <mxGeometry relative="1" as="geometry" />
        </mxCell>
        <mxCell id="5mEqQLxHZBrKdi8CqGOv-4" value="Data Stores" style="rounded=0;whiteSpace=wrap;html=1;" parent="1" vertex="1">
          <mxGeometry x="280" y="20" width="120" height="60" as="geometry" />
        </mxCell>
        <mxCell id="5mEqQLxHZBrKdi8CqGOv-6" value="Data Producers" style="rounded=0;whiteSpace=wrap;html=1;" parent="1" vertex="1">
          <mxGeometry x="20" y="140" width="120" height="60" as="geometry" />
        </mxCell>
        <mxCell id="5mEqQLxHZBrKdi8CqGOv-7" value="Data Producers" style="rounded=0;whiteSpace=wrap;html=1;" parent="1" vertex="1">
          <mxGeometry x="30" y="150" width="120" height="60" as="geometry" />
        </mxCell>
        <mxCell id="5mEqQLxHZBrKdi8CqGOv-9" style="edgeStyle=orthogonalEdgeStyle;rounded=0;orthogonalLoop=1;jettySize=auto;html=1;endArrow=none;endFill=0;jumpStyle=arc;" parent="1" source="5mEqQLxHZBrKdi8CqGOv-8" target="5mEqQLxHZBrKdi8CqGOv-4" edge="1">
          <mxGeometry relative="1" as="geometry">
            <Array as="points">
              <mxPoint x="100" y="50" />
            </Array>
          </mxGeometry>
        </mxCell>
        <mxCell id="5mEqQLxHZBrKdi8CqGOv-10" style="edgeStyle=orthogonalEdgeStyle;rounded=0;orthogonalLoop=1;jettySize=auto;html=1;endArrow=none;endFill=0;jumpStyle=arc;" parent="1" target="5mEqQLxHZBrKdi8CqGOv-2" edge="1">
          <mxGeometry relative="1" as="geometry">
            <mxPoint x="100" y="220" as="sourcePoint" />
            <mxPoint x="290" y="470" as="targetPoint" />
            <Array as="points">
              <mxPoint x="100" y="470" />
            </Array>
          </mxGeometry>
        </mxCell>
        <mxCell id="5mEqQLxHZBrKdi8CqGOv-14" style="edgeStyle=orthogonalEdgeStyle;rounded=0;orthogonalLoop=1;jettySize=auto;html=1;endArrow=none;endFill=0;jumpStyle=arc;" parent="1" source="5mEqQLxHZBrKdi8CqGOv-8" target="5mEqQLxHZBrKdi8CqGOv-13" edge="1">
          <mxGeometry relative="1" as="geometry">
            <Array as="points">
              <mxPoint x="120" y="330" />
            </Array>
          </mxGeometry>
        </mxCell>
        <mxCell id="5mEqQLxHZBrKdi8CqGOv-21" style="edgeStyle=orthogonalEdgeStyle;rounded=0;orthogonalLoop=1;jettySize=auto;html=1;endArrow=none;endFill=0;jumpStyle=arc;" parent="1" source="5mEqQLxHZBrKdi8CqGOv-8" target="5mEqQLxHZBrKdi8CqGOv-1" edge="1">
          <mxGeometry relative="1" as="geometry" />
        </mxCell>
        <mxCell id="5mEqQLxHZBrKdi8CqGOv-26" style="edgeStyle=orthogonalEdgeStyle;rounded=0;orthogonalLoop=1;jettySize=auto;html=1;endArrow=none;endFill=0;jumpStyle=arc;" parent="1" source="5mEqQLxHZBrKdi8CqGOv-8" target="5mEqQLxHZBrKdi8CqGOv-24" edge="1">
          <mxGeometry relative="1" as="geometry">
            <Array as="points">
              <mxPoint x="80" y="560" />
              <mxPoint x="580" y="560" />
            </Array>
          </mxGeometry>
        </mxCell>
        <mxCell id="5mEqQLxHZBrKdi8CqGOv-8" value="Data Producers" style="rounded=0;whiteSpace=wrap;html=1;" parent="1" vertex="1">
          <mxGeometry x="40" y="160" width="120" height="60" as="geometry" />
        </mxCell>
        <mxCell id="5mEqQLxHZBrKdi8CqGOv-20" style="edgeStyle=orthogonalEdgeStyle;rounded=0;orthogonalLoop=1;jettySize=auto;html=1;endArrow=none;endFill=0;jumpStyle=arc;" parent="1" source="5mEqQLxHZBrKdi8CqGOv-12" target="5mEqQLxHZBrKdi8CqGOv-19" edge="1">
          <mxGeometry relative="1" as="geometry" />
        </mxCell>
        <mxCell id="5mEqQLxHZBrKdi8CqGOv-25" style="edgeStyle=orthogonalEdgeStyle;rounded=0;orthogonalLoop=1;jettySize=auto;html=1;endArrow=none;endFill=0;jumpStyle=arc;" parent="1" source="5mEqQLxHZBrKdi8CqGOv-12" target="5mEqQLxHZBrKdi8CqGOv-24" edge="1">
          <mxGeometry relative="1" as="geometry" />
        </mxCell>
        <mxCell id="5mEqQLxHZBrKdi8CqGOv-12" value="Consumer UI" style="rounded=0;whiteSpace=wrap;html=1;" parent="1" vertex="1">
          <mxGeometry x="520" y="300" width="120" height="60" as="geometry" />
        </mxCell>
        <mxCell id="5mEqQLxHZBrKdi8CqGOv-17" style="edgeStyle=orthogonalEdgeStyle;rounded=0;orthogonalLoop=1;jettySize=auto;html=1;endArrow=none;endFill=0;jumpStyle=arc;" parent="1" source="5mEqQLxHZBrKdi8CqGOv-13" target="5mEqQLxHZBrKdi8CqGOv-12" edge="1">
          <mxGeometry relative="1" as="geometry" />
        </mxCell>
        <mxCell id="5mEqQLxHZBrKdi8CqGOv-13" value="Data Quality" style="rounded=0;whiteSpace=wrap;html=1;" parent="1" vertex="1">
          <mxGeometry x="280" y="300" width="120" height="60" as="geometry" />
        </mxCell>
        <mxCell id="5mEqQLxHZBrKdi8CqGOv-19" value="Consumers" style="sketch=0;outlineConnect=0;fontColor=#232F3E;gradientColor=none;fillColor=#232F3D;strokeColor=none;dashed=0;verticalLabelPosition=bottom;verticalAlign=top;align=center;html=1;fontSize=12;fontStyle=0;aspect=fixed;pointerEvents=1;shape=mxgraph.aws4.user;" parent="1" vertex="1">
          <mxGeometry x="760" y="305.5" width="49" height="49" as="geometry" />
        </mxCell>
        <mxCell id="5mEqQLxHZBrKdi8CqGOv-23" style="edgeStyle=orthogonalEdgeStyle;rounded=0;orthogonalLoop=1;jettySize=auto;html=1;endArrow=none;endFill=0;jumpStyle=arc;" parent="1" source="5mEqQLxHZBrKdi8CqGOv-22" target="5mEqQLxHZBrKdi8CqGOv-8" edge="1">
          <mxGeometry relative="1" as="geometry" />
        </mxCell>
        <mxCell id="5mEqQLxHZBrKdi8CqGOv-22" value="External&lt;br&gt;Data Sources" style="rounded=0;whiteSpace=wrap;html=1;" parent="1" vertex="1">
          <mxGeometry x="-200" y="160" width="120" height="60" as="geometry" />
        </mxCell>
        <mxCell id="5mEqQLxHZBrKdi8CqGOv-24" value="Access Control" style="rounded=0;whiteSpace=wrap;html=1;" parent="1" vertex="1">
          <mxGeometry x="520" y="440" width="120" height="60" as="geometry" />
        </mxCell>
        <mxCell id="3aFgBXXJwkzfX0yqqTGz-4" style="edgeStyle=orthogonalEdgeStyle;rounded=0;orthogonalLoop=1;jettySize=auto;html=1;endArrow=none;endFill=0;jumpStyle=arc;" parent="1" source="3aFgBXXJwkzfX0yqqTGz-1" target="3aFgBXXJwkzfX0yqqTGz-2" edge="1">
          <mxGeometry relative="1" as="geometry" />
        </mxCell>
        <mxCell id="3aFgBXXJwkzfX0yqqTGz-5" style="rounded=0;orthogonalLoop=1;jettySize=auto;html=1;endArrow=none;endFill=0;jumpStyle=arc;" parent="1" source="3aFgBXXJwkzfX0yqqTGz-1" target="5mEqQLxHZBrKdi8CqGOv-1" edge="1">
          <mxGeometry relative="1" as="geometry" />
        </mxCell>
        <mxCell id="3aFgBXXJwkzfX0yqqTGz-6" style="edgeStyle=orthogonalEdgeStyle;rounded=0;orthogonalLoop=1;jettySize=auto;html=1;endArrow=none;endFill=0;jumpStyle=arc;" parent="1" source="3aFgBXXJwkzfX0yqqTGz-1" target="5mEqQLxHZBrKdi8CqGOv-24" edge="1">
          <mxGeometry relative="1" as="geometry">
            <Array as="points">
              <mxPoint x="680" y="70" />
              <mxPoint x="680" y="470" />
            </Array>
          </mxGeometry>
        </mxCell>
        <mxCell id="3aFgBXXJwkzfX0yqqTGz-1" value="Producer UI" style="rounded=0;whiteSpace=wrap;html=1;" parent="1" vertex="1">
          <mxGeometry x="520" y="24.5" width="120" height="60" as="geometry" />
        </mxCell>
        <mxCell id="3aFgBXXJwkzfX0yqqTGz-2" value="Producers" style="sketch=0;outlineConnect=0;fontColor=#232F3E;gradientColor=none;fillColor=#232F3D;strokeColor=none;dashed=0;verticalLabelPosition=bottom;verticalAlign=top;align=center;html=1;fontSize=12;fontStyle=0;aspect=fixed;pointerEvents=1;shape=mxgraph.aws4.user;" parent="1" vertex="1">
          <mxGeometry x="760" y="30" width="49" height="49" as="geometry" />
        </mxCell>
      </root>
    </mxGraphModel>
  </diagram>
  <diagram id="Dk6PBkD2Fl86uh45p-eW" name="producers">
    <mxGraphModel dx="3634" dy="1636" grid="1" gridSize="10" guides="1" tooltips="1" connect="1" arrows="1" fold="1" page="1" pageScale="1" pageWidth="1100" pageHeight="850" math="0" shadow="0">
      <root>
        <mxCell id="0" />
        <mxCell id="1" parent="0" />
        <mxCell id="JAz6FiytfdSlVg7nAps8-3" value="2.1. consume" style="edgeStyle=orthogonalEdgeStyle;rounded=0;orthogonalLoop=1;jettySize=auto;html=1;startArrow=classic;startFill=1;endArrow=none;endFill=0;" parent="1" source="JAz6FiytfdSlVg7nAps8-1" target="JAz6FiytfdSlVg7nAps8-2" edge="1">
          <mxGeometry x="-0.2749" y="10" relative="1" as="geometry">
            <Array as="points">
              <mxPoint x="-850" y="-580" />
            </Array>
            <mxPoint as="offset" />
          </mxGeometry>
        </mxCell>
        <mxCell id="pPV7m6hTxjLwtLjUrxQA-2" value="1. obtain&lt;br&gt;credentials" style="edgeStyle=orthogonalEdgeStyle;rounded=0;orthogonalLoop=1;jettySize=auto;html=1;" parent="1" source="JAz6FiytfdSlVg7nAps8-1" target="pPV7m6hTxjLwtLjUrxQA-1" edge="1">
          <mxGeometry x="-0.0471" y="20" relative="1" as="geometry">
            <mxPoint as="offset" />
            <Array as="points">
              <mxPoint x="-910" y="-680" />
            </Array>
          </mxGeometry>
        </mxCell>
        <mxCell id="pPV7m6hTxjLwtLjUrxQA-6" value="4. update" style="edgeStyle=orthogonalEdgeStyle;rounded=0;orthogonalLoop=1;jettySize=auto;html=1;" parent="1" source="JAz6FiytfdSlVg7nAps8-1" target="pPV7m6hTxjLwtLjUrxQA-5" edge="1">
          <mxGeometry x="-0.6484" y="10" relative="1" as="geometry">
            <Array as="points" />
            <mxPoint as="offset" />
          </mxGeometry>
        </mxCell>
        <mxCell id="pPV7m6hTxjLwtLjUrxQA-8" value="5. publish" style="edgeStyle=orthogonalEdgeStyle;rounded=0;orthogonalLoop=1;jettySize=auto;html=1;" parent="1" source="JAz6FiytfdSlVg7nAps8-1" target="pPV7m6hTxjLwtLjUrxQA-7" edge="1">
          <mxGeometry x="-0.2811" y="10" relative="1" as="geometry">
            <Array as="points">
              <mxPoint x="-870" y="-370" />
            </Array>
            <mxPoint as="offset" />
          </mxGeometry>
        </mxCell>
        <mxCell id="pPV7m6hTxjLwtLjUrxQA-10" value="6. publish" style="edgeStyle=orthogonalEdgeStyle;rounded=0;orthogonalLoop=1;jettySize=auto;html=1;" parent="1" source="JAz6FiytfdSlVg7nAps8-1" target="pPV7m6hTxjLwtLjUrxQA-9" edge="1">
          <mxGeometry x="-0.023" y="20" relative="1" as="geometry">
            <Array as="points">
              <mxPoint x="-890" y="-280" />
            </Array>
            <mxPoint as="offset" />
          </mxGeometry>
        </mxCell>
        <mxCell id="JAz6FiytfdSlVg7nAps8-1" value="Data Products" style="sketch=0;points=[[0,0,0],[0.25,0,0],[0.5,0,0],[0.75,0,0],[1,0,0],[0,1,0],[0.25,1,0],[0.5,1,0],[0.75,1,0],[1,1,0],[0,0.25,0],[0,0.5,0],[0,0.75,0],[1,0.25,0],[1,0.5,0],[1,0.75,0]];gradientDirection=north;outlineConnect=0;fontColor=#232F3E;gradientColor=none;fillColor=#1E262E;strokeColor=#ffffff;dashed=0;verticalLabelPosition=bottom;verticalAlign=top;align=center;html=1;fontSize=12;fontStyle=0;aspect=fixed;shape=mxgraph.aws4.resourceIcon;resIcon=mxgraph.aws4.general;" parent="1" vertex="1">
          <mxGeometry x="-920" y="-519" width="78" height="78" as="geometry" />
        </mxCell>
        <mxCell id="JAz6FiytfdSlVg7nAps8-5" value="3. produce" style="edgeStyle=orthogonalEdgeStyle;rounded=0;orthogonalLoop=1;jettySize=auto;html=1;startArrow=classic;startFill=1;endArrow=none;endFill=0;" parent="1" source="JAz6FiytfdSlVg7nAps8-2" target="JAz6FiytfdSlVg7nAps8-1" edge="1">
          <mxGeometry x="0.3523" y="-10" relative="1" as="geometry">
            <Array as="points">
              <mxPoint x="-881" y="-600" />
            </Array>
            <mxPoint as="offset" />
          </mxGeometry>
        </mxCell>
        <mxCell id="JAz6FiytfdSlVg7nAps8-2" value="&amp;nbsp;Data Stores" style="fillColor=none;strokeColor=#5A6C86;dashed=1;verticalAlign=top;fontStyle=0;fontColor=#5A6C86;whiteSpace=wrap;html=1;align=left;" parent="1" vertex="1">
          <mxGeometry x="-660" y="-610" width="100" height="60" as="geometry" />
        </mxCell>
        <mxCell id="pPV7m6hTxjLwtLjUrxQA-1" value="&amp;nbsp;Access Control&amp;nbsp;" style="fillColor=none;strokeColor=#5A6C86;dashed=1;verticalAlign=top;fontStyle=0;fontColor=#5A6C86;whiteSpace=wrap;html=1;align=left;" parent="1" vertex="1">
          <mxGeometry x="-660" y="-710" width="100" height="60" as="geometry" />
        </mxCell>
        <mxCell id="pPV7m6hTxjLwtLjUrxQA-4" value="2.2. consume" style="edgeStyle=orthogonalEdgeStyle;rounded=0;orthogonalLoop=1;jettySize=auto;html=1;" parent="1" source="pPV7m6hTxjLwtLjUrxQA-3" target="JAz6FiytfdSlVg7nAps8-1" edge="1">
          <mxGeometry x="0.5" y="10" relative="1" as="geometry">
            <Array as="points">
              <mxPoint x="-1030" y="-480" />
              <mxPoint x="-1030" y="-480" />
            </Array>
            <mxPoint as="offset" />
          </mxGeometry>
        </mxCell>
        <mxCell id="pPV7m6hTxjLwtLjUrxQA-3" value="&amp;nbsp;External Data Sources" style="fillColor=none;strokeColor=#5A6C86;dashed=1;verticalAlign=top;fontStyle=0;fontColor=#5A6C86;whiteSpace=wrap;html=1;align=left;" parent="1" vertex="1">
          <mxGeometry x="-1180" y="-512.5" width="100" height="65" as="geometry" />
        </mxCell>
        <mxCell id="pPV7m6hTxjLwtLjUrxQA-5" value="&amp;nbsp;Data Catalog" style="fillColor=none;strokeColor=#5A6C86;dashed=1;verticalAlign=top;fontStyle=0;fontColor=#5A6C86;whiteSpace=wrap;html=1;align=left;" parent="1" vertex="1">
          <mxGeometry x="-660" y="-510" width="100" height="60" as="geometry" />
        </mxCell>
        <mxCell id="pPV7m6hTxjLwtLjUrxQA-7" value="&amp;nbsp;Data Quality" style="fillColor=none;strokeColor=#5A6C86;dashed=1;verticalAlign=top;fontStyle=0;fontColor=#5A6C86;whiteSpace=wrap;html=1;align=left;" parent="1" vertex="1">
          <mxGeometry x="-660" y="-405" width="100" height="60" as="geometry" />
        </mxCell>
        <mxCell id="pPV7m6hTxjLwtLjUrxQA-9" value="&amp;nbsp;Data Lineage" style="fillColor=none;strokeColor=#5A6C86;dashed=1;verticalAlign=top;fontStyle=0;fontColor=#5A6C86;whiteSpace=wrap;html=1;align=left;" parent="1" vertex="1">
          <mxGeometry x="-660" y="-310" width="100" height="60" as="geometry" />
        </mxCell>
        <mxCell id="6h8oD09IH9JjqXDH5Ktd-1" value="Data Producer AWS Account" style="points=[[0,0],[0.25,0],[0.5,0],[0.75,0],[1,0],[1,0.25],[1,0.5],[1,0.75],[1,1],[0.75,1],[0.5,1],[0.25,1],[0,1],[0,0.75],[0,0.5],[0,0.25]];outlineConnect=0;gradientColor=none;html=1;whiteSpace=wrap;fontSize=12;fontStyle=0;container=1;pointerEvents=0;collapsible=0;recursiveResize=0;shape=mxgraph.aws4.group;grIcon=mxgraph.aws4.group_aws_cloud_alt;strokeColor=#232F3E;fillColor=none;verticalAlign=top;align=left;spacingLeft=30;fontColor=#232F3E;dashed=0;" parent="1" vertex="1">
          <mxGeometry x="-990" y="-770" width="210" height="570" as="geometry" />
        </mxCell>
        <mxCell id="6h8oD09IH9JjqXDH5Ktd-2" value="SDF AWS Account" style="points=[[0,0],[0.25,0],[0.5,0],[0.75,0],[1,0],[1,0.25],[1,0.5],[1,0.75],[1,1],[0.75,1],[0.5,1],[0.25,1],[0,1],[0,0.75],[0,0.5],[0,0.25]];outlineConnect=0;gradientColor=none;html=1;whiteSpace=wrap;fontSize=12;fontStyle=0;container=1;pointerEvents=0;collapsible=0;recursiveResize=0;shape=mxgraph.aws4.group;grIcon=mxgraph.aws4.group_aws_cloud_alt;strokeColor=#232F3E;fillColor=none;verticalAlign=top;align=left;spacingLeft=30;fontColor=#232F3E;dashed=0;" parent="1" vertex="1">
          <mxGeometry x="-715" y="-770" width="210" height="570" as="geometry" />
        </mxCell>
        <mxCell id="6h8oD09IH9JjqXDH5Ktd-3" style="edgeStyle=orthogonalEdgeStyle;rounded=0;orthogonalLoop=1;jettySize=auto;html=1;exitX=0.5;exitY=1;exitDx=0;exitDy=0;" parent="1" source="6h8oD09IH9JjqXDH5Ktd-2" target="6h8oD09IH9JjqXDH5Ktd-2" edge="1">
          <mxGeometry relative="1" as="geometry" />
        </mxCell>
      </root>
    </mxGraphModel>
  </diagram>
  <diagram id="7YnhRJKG2H5OpXjdk3Y2" name="data stores">
    <mxGraphModel dx="2534" dy="1636" grid="1" gridSize="10" guides="1" tooltips="1" connect="1" arrows="1" fold="1" page="1" pageScale="1" pageWidth="1100" pageHeight="850" math="0" shadow="0">
      <root>
        <mxCell id="0" />
        <mxCell id="1" parent="0" />
        <mxCell id="sV8y1FDS-mPD8P-ySjWG-1" value="&amp;nbsp;Data Producers" style="fillColor=none;strokeColor=#5A6C86;dashed=1;verticalAlign=top;fontStyle=0;fontColor=#5A6C86;whiteSpace=wrap;html=1;align=left;" parent="1" vertex="1">
          <mxGeometry x="-1040" y="-590" width="100" height="90" as="geometry" />
        </mxCell>
        <mxCell id="DXaMgDG0W9RpTqXQcrhz-8" value="1.1. consume" style="edgeStyle=orthogonalEdgeStyle;rounded=0;orthogonalLoop=1;jettySize=auto;html=1;startArrow=classic;startFill=1;endArrow=none;endFill=0;entryX=-0.005;entryY=0.32;entryDx=0;entryDy=0;entryPerimeter=0;" parent="1" source="sV8y1FDS-mPD8P-ySjWG-1" target="MRL73KfLJPaS2MSkDeHP-2" edge="1">
          <mxGeometry x="0.125" y="10" relative="1" as="geometry">
            <mxPoint x="-962" y="-560" as="sourcePoint" />
            <Array as="points">
              <mxPoint x="-850" y="-559" />
              <mxPoint x="-850" y="-559" />
            </Array>
            <mxPoint as="offset" />
            <mxPoint x="-780" y="-560" as="targetPoint" />
          </mxGeometry>
        </mxCell>
        <mxCell id="DXaMgDG0W9RpTqXQcrhz-9" value="1.2. produce" style="edgeStyle=orthogonalEdgeStyle;rounded=0;orthogonalLoop=1;jettySize=auto;html=1;entryX=0;entryY=0.365;entryDx=0;entryDy=0;entryPerimeter=0;" parent="1" source="sV8y1FDS-mPD8P-ySjWG-1" target="MRL73KfLJPaS2MSkDeHP-2" edge="1">
          <mxGeometry x="0.125" y="10" relative="1" as="geometry">
            <mxPoint x="-962" y="-540" as="sourcePoint" />
            <mxPoint x="-780" y="-530" as="targetPoint" />
            <Array as="points">
              <mxPoint x="-860" y="-530" />
            </Array>
            <mxPoint as="offset" />
          </mxGeometry>
        </mxCell>
        <mxCell id="DXaMgDG0W9RpTqXQcrhz-17" value="2. completion events" style="edgeStyle=orthogonalEdgeStyle;rounded=0;orthogonalLoop=1;jettySize=auto;html=1;exitX=0.406;exitY=0.005;exitDx=0;exitDy=0;exitPerimeter=0;" parent="1" source="sV8y1FDS-mPD8P-ySjWG-1" edge="1">
          <mxGeometry x="-0.9271" relative="1" as="geometry">
            <mxPoint x="-1001" y="-589" as="sourcePoint" />
            <Array as="points">
              <mxPoint x="-999" y="-669" />
              <mxPoint x="-1000" y="-800" />
              <mxPoint x="-481" y="-800" />
            </Array>
            <mxPoint as="offset" />
            <mxPoint x="-481" y="-680" as="targetPoint" />
          </mxGeometry>
        </mxCell>
        <mxCell id="WfhExmalz7Y9LGKOJ5S1-1" value="Data Producer AWS Account" style="points=[[0,0],[0.25,0],[0.5,0],[0.75,0],[1,0],[1,0.25],[1,0.5],[1,0.75],[1,1],[0.75,1],[0.5,1],[0.25,1],[0,1],[0,0.75],[0,0.5],[0,0.25]];outlineConnect=0;gradientColor=none;html=1;whiteSpace=wrap;fontSize=12;fontStyle=0;container=1;pointerEvents=0;collapsible=0;recursiveResize=0;shape=mxgraph.aws4.group;grIcon=mxgraph.aws4.group_aws_cloud_alt;strokeColor=#232F3E;fillColor=none;verticalAlign=top;align=left;spacingLeft=30;fontColor=#232F3E;dashed=0;" parent="1" vertex="1">
          <mxGeometry x="-1080" y="-850" width="210" height="770" as="geometry" />
        </mxCell>
        <mxCell id="MRL73KfLJPaS2MSkDeHP-1" value="SDF AWS Account" style="points=[[0,0],[0.25,0],[0.5,0],[0.75,0],[1,0],[1,0.25],[1,0.5],[1,0.75],[1,1],[0.75,1],[0.5,1],[0.25,1],[0,1],[0,0.75],[0,0.5],[0,0.25]];outlineConnect=0;gradientColor=none;html=1;whiteSpace=wrap;fontSize=12;fontStyle=0;container=1;pointerEvents=0;collapsible=0;recursiveResize=0;shape=mxgraph.aws4.group;grIcon=mxgraph.aws4.group_aws_cloud_alt;strokeColor=#232F3E;fillColor=none;verticalAlign=top;align=left;spacingLeft=30;fontColor=#232F3E;dashed=0;" parent="1" vertex="1">
          <mxGeometry x="-790" y="-850" width="400" height="770" as="geometry" />
        </mxCell>
        <mxCell id="MRL73KfLJPaS2MSkDeHP-2" value="&amp;nbsp;Data Stores" style="fillColor=none;strokeColor=#5A6C86;dashed=1;verticalAlign=top;fontStyle=0;fontColor=#5A6C86;whiteSpace=wrap;html=1;align=left;" parent="MRL73KfLJPaS2MSkDeHP-1" vertex="1">
          <mxGeometry x="46" y="80" width="160" height="660" as="geometry" />
        </mxCell>
        <mxCell id="WfhExmalz7Y9LGKOJ5S1-4" value="Amazon&lt;br&gt;Redshift" style="sketch=0;points=[[0,0,0],[0.25,0,0],[0.5,0,0],[0.75,0,0],[1,0,0],[0,1,0],[0.25,1,0],[0.5,1,0],[0.75,1,0],[1,1,0],[0,0.25,0],[0,0.5,0],[0,0.75,0],[1,0.25,0],[1,0.5,0],[1,0.75,0]];outlineConnect=0;fontColor=#232F3E;fillColor=#8C4FFF;strokeColor=#ffffff;dashed=0;verticalLabelPosition=bottom;verticalAlign=top;align=center;html=1;fontSize=12;fontStyle=0;aspect=fixed;shape=mxgraph.aws4.resourceIcon;resIcon=mxgraph.aws4.redshift;" parent="MRL73KfLJPaS2MSkDeHP-1" vertex="1">
          <mxGeometry x="87" y="310" width="78" height="78" as="geometry" />
        </mxCell>
        <mxCell id="WfhExmalz7Y9LGKOJ5S1-5" value="Amazon&lt;br&gt;RDS" style="sketch=0;points=[[0,0,0],[0.25,0,0],[0.5,0,0],[0.75,0,0],[1,0,0],[0,1,0],[0.25,1,0],[0.5,1,0],[0.75,1,0],[1,1,0],[0,0.25,0],[0,0.5,0],[0,0.75,0],[1,0.25,0],[1,0.5,0],[1,0.75,0]];outlineConnect=0;fontColor=#232F3E;fillColor=#C925D1;strokeColor=#ffffff;dashed=0;verticalLabelPosition=bottom;verticalAlign=top;align=center;html=1;fontSize=12;fontStyle=0;aspect=fixed;shape=mxgraph.aws4.resourceIcon;resIcon=mxgraph.aws4.rds;" parent="MRL73KfLJPaS2MSkDeHP-1" vertex="1">
          <mxGeometry x="87" y="450" width="78" height="78" as="geometry" />
        </mxCell>
        <mxCell id="WfhExmalz7Y9LGKOJ5S1-6" value="Amazon&lt;br&gt;DynamoDb" style="sketch=0;points=[[0,0,0],[0.25,0,0],[0.5,0,0],[0.75,0,0],[1,0,0],[0,1,0],[0.25,1,0],[0.5,1,0],[0.75,1,0],[1,1,0],[0,0.25,0],[0,0.5,0],[0,0.75,0],[1,0.25,0],[1,0.5,0],[1,0.75,0]];outlineConnect=0;fontColor=#232F3E;fillColor=#C925D1;strokeColor=#ffffff;dashed=0;verticalLabelPosition=bottom;verticalAlign=top;align=center;html=1;fontSize=12;fontStyle=0;aspect=fixed;shape=mxgraph.aws4.resourceIcon;resIcon=mxgraph.aws4.dynamodb;" parent="MRL73KfLJPaS2MSkDeHP-1" vertex="1">
          <mxGeometry x="87" y="590" width="78" height="78" as="geometry" />
        </mxCell>
        <mxCell id="WfhExmalz7Y9LGKOJ5S1-7" value="Amazon&lt;br&gt;S3" style="sketch=0;points=[[0,0,0],[0.25,0,0],[0.5,0,0],[0.75,0,0],[1,0,0],[0,1,0],[0.25,1,0],[0.5,1,0],[0.75,1,0],[1,1,0],[0,0.25,0],[0,0.5,0],[0,0.75,0],[1,0.25,0],[1,0.5,0],[1,0.75,0]];outlineConnect=0;fontColor=#232F3E;fillColor=#7AA116;strokeColor=#ffffff;dashed=0;verticalLabelPosition=bottom;verticalAlign=top;align=center;html=1;fontSize=12;fontStyle=0;aspect=fixed;shape=mxgraph.aws4.resourceIcon;resIcon=mxgraph.aws4.s3;" parent="MRL73KfLJPaS2MSkDeHP-1" vertex="1">
          <mxGeometry x="87" y="170" width="78" height="78" as="geometry" />
        </mxCell>
        <mxCell id="WfhExmalz7Y9LGKOJ5S1-8" value="2. completion events" style="edgeStyle=orthogonalEdgeStyle;rounded=0;orthogonalLoop=1;jettySize=auto;html=1;startArrow=classic;startFill=1;endArrow=none;endFill=0;" parent="MRL73KfLJPaS2MSkDeHP-1" source="WfhExmalz7Y9LGKOJ5S1-9" target="WfhExmalz7Y9LGKOJ5S1-7" edge="1">
          <mxGeometry x="0.1268" y="-19" relative="1" as="geometry">
            <mxPoint as="offset" />
          </mxGeometry>
        </mxCell>
        <mxCell id="WfhExmalz7Y9LGKOJ5S1-9" value="Amazon&lt;br&gt;EventBridge" style="sketch=0;points=[[0,0,0],[0.25,0,0],[0.5,0,0],[0.75,0,0],[1,0,0],[0,1,0],[0.25,1,0],[0.5,1,0],[0.75,1,0],[1,1,0],[0,0.25,0],[0,0.5,0],[0,0.75,0],[1,0.25,0],[1,0.5,0],[1,0.75,0]];outlineConnect=0;fontColor=#232F3E;fillColor=#E7157B;strokeColor=#ffffff;dashed=0;verticalLabelPosition=bottom;verticalAlign=top;align=center;html=1;fontSize=12;fontStyle=0;aspect=fixed;shape=mxgraph.aws4.resourceIcon;resIcon=mxgraph.aws4.eventbridge;" parent="MRL73KfLJPaS2MSkDeHP-1" vertex="1">
          <mxGeometry x="286" y="170" width="78" height="78" as="geometry" />
        </mxCell>
        <mxCell id="WfhExmalz7Y9LGKOJ5S1-10" value="2. complettion events" style="edgeStyle=orthogonalEdgeStyle;rounded=0;orthogonalLoop=1;jettySize=auto;html=1;" parent="MRL73KfLJPaS2MSkDeHP-1" source="WfhExmalz7Y9LGKOJ5S1-4" target="WfhExmalz7Y9LGKOJ5S1-9" edge="1">
          <mxGeometry x="-0.5618" y="19" relative="1" as="geometry">
            <Array as="points">
              <mxPoint x="326" y="349" />
            </Array>
            <mxPoint as="offset" />
          </mxGeometry>
        </mxCell>
      </root>
    </mxGraphModel>
  </diagram>
  <diagram id="FSAiwoQAAgvVgsdoJe3C" name="catalog">
    <mxGraphModel dx="2534" dy="1636" grid="1" gridSize="10" guides="1" tooltips="1" connect="1" arrows="1" fold="1" page="1" pageScale="1" pageWidth="1100" pageHeight="850" math="0" shadow="0">
      <root>
        <mxCell id="0" />
        <mxCell id="1" parent="0" />
        <mxCell id="6Gwo3R0m3KVYFX8MA8DT-3" value="4. imports" style="edgeStyle=orthogonalEdgeStyle;rounded=0;orthogonalLoop=1;jettySize=auto;html=1;" parent="1" source="uXFnmU4obD2Urvxa8qfT-4" target="4SkeucJqfWYVToXLk232-5" edge="1">
          <mxGeometry x="-0.8769" y="15" relative="1" as="geometry">
            <Array as="points">
              <mxPoint x="180" y="-35" />
            </Array>
            <mxPoint as="offset" />
          </mxGeometry>
        </mxCell>
        <mxCell id="S0oxVMoBzNu8I96My73Q-2" value="2.3. completion&lt;br&gt;events" style="edgeStyle=orthogonalEdgeStyle;rounded=0;orthogonalLoop=1;jettySize=auto;html=1;" parent="1" source="uXFnmU4obD2Urvxa8qfT-1" target="S0oxVMoBzNu8I96My73Q-1" edge="1">
          <mxGeometry relative="1" as="geometry" />
        </mxCell>
        <mxCell id="uXFnmU4obD2Urvxa8qfT-1" value="&amp;nbsp;Data Stores" style="fillColor=none;strokeColor=#5A6C86;dashed=1;verticalAlign=top;fontStyle=0;fontColor=#5A6C86;whiteSpace=wrap;html=1;align=left;" parent="1" vertex="1">
          <mxGeometry x="-570" y="-440" width="100" height="100" as="geometry" />
        </mxCell>
        <mxCell id="S0oxVMoBzNu8I96My73Q-5" value="3.4. crawls" style="edgeStyle=orthogonalEdgeStyle;rounded=0;orthogonalLoop=1;jettySize=auto;html=1;" parent="1" source="S0oxVMoBzNu8I96My73Q-3" target="uXFnmU4obD2Urvxa8qfT-1" edge="1">
          <mxGeometry x="-0.6491" relative="1" as="geometry">
            <Array as="points">
              <mxPoint x="-31" y="-480" />
              <mxPoint x="-510" y="-480" />
            </Array>
            <mxPoint as="offset" />
          </mxGeometry>
        </mxCell>
        <mxCell id="41mr032aBYkz0Gp1hhgW-6" value="3.3. retrieve credentials" style="edgeStyle=orthogonalEdgeStyle;rounded=0;orthogonalLoop=1;jettySize=auto;html=1;" parent="1" source="S0oxVMoBzNu8I96My73Q-3" target="PeOlyhXK3bLlOopTgPjd-2" edge="1">
          <mxGeometry x="-0.6641" y="-10" relative="1" as="geometry">
            <Array as="points">
              <mxPoint x="-31" y="-290" />
              <mxPoint x="-680" y="-290" />
            </Array>
            <mxPoint as="offset" />
          </mxGeometry>
        </mxCell>
        <mxCell id="PeOlyhXK3bLlOopTgPjd-2" value="AWS Secrets Manager&lt;br&gt;&lt;i&gt;(data store credentials)&lt;/i&gt;" style="sketch=0;points=[[0,0,0],[0.25,0,0],[0.5,0,0],[0.75,0,0],[1,0,0],[0,1,0],[0.25,1,0],[0.5,1,0],[0.75,1,0],[1,1,0],[0,0.25,0],[0,0.5,0],[0,0.75,0],[1,0.25,0],[1,0.5,0],[1,0.75,0]];outlineConnect=0;fontColor=#232F3E;fillColor=#DD344C;strokeColor=#ffffff;dashed=0;verticalLabelPosition=bottom;verticalAlign=top;align=center;html=1;fontSize=12;fontStyle=0;aspect=fixed;shape=mxgraph.aws4.resourceIcon;resIcon=mxgraph.aws4.secrets_manager;" parent="1" vertex="1">
          <mxGeometry x="-730" y="-431" width="78" height="78" as="geometry" />
        </mxCell>
        <mxCell id="6Gwo3R0m3KVYFX8MA8DT-1" value="Data Producer AWS Account" style="points=[[0,0],[0.25,0],[0.5,0],[0.75,0],[1,0],[1,0.25],[1,0.5],[1,0.75],[1,1],[0.75,1],[0.5,1],[0.25,1],[0,1],[0,0.75],[0,0.5],[0,0.25]];outlineConnect=0;gradientColor=none;html=1;whiteSpace=wrap;fontSize=12;fontStyle=0;container=1;pointerEvents=0;collapsible=0;recursiveResize=0;shape=mxgraph.aws4.group;grIcon=mxgraph.aws4.group_aws_cloud_alt;strokeColor=#232F3E;fillColor=none;verticalAlign=top;align=left;spacingLeft=30;fontColor=#232F3E;dashed=0;" parent="1" vertex="1">
          <mxGeometry x="-800" y="-520" width="1040" height="270" as="geometry" />
        </mxCell>
        <mxCell id="4SkeucJqfWYVToXLk232-5" value="AWS Glue&lt;br&gt;Data Catalog" style="sketch=0;outlineConnect=0;fontColor=#232F3E;gradientColor=none;fillColor=#8C4FFF;strokeColor=none;dashed=0;verticalLabelPosition=bottom;verticalAlign=top;align=center;html=1;fontSize=12;fontStyle=0;aspect=fixed;pointerEvents=1;shape=mxgraph.aws4.glue_data_catalog;" parent="6Gwo3R0m3KVYFX8MA8DT-1" vertex="1">
          <mxGeometry x="930" y="91" width="72" height="78" as="geometry" />
        </mxCell>
        <mxCell id="S0oxVMoBzNu8I96My73Q-1" value="Amazon&lt;br&gt;EventBridge" style="sketch=0;points=[[0,0,0],[0.25,0,0],[0.5,0,0],[0.75,0,0],[1,0,0],[0,1,0],[0.25,1,0],[0.5,1,0],[0.75,1,0],[1,1,0],[0,0.25,0],[0,0.5,0],[0,0.75,0],[1,0.25,0],[1,0.5,0],[1,0.75,0]];outlineConnect=0;fontColor=#232F3E;fillColor=#E7157B;strokeColor=#ffffff;dashed=0;verticalLabelPosition=bottom;verticalAlign=top;align=center;html=1;fontSize=12;fontStyle=0;aspect=fixed;shape=mxgraph.aws4.resourceIcon;resIcon=mxgraph.aws4.eventbridge;" parent="6Gwo3R0m3KVYFX8MA8DT-1" vertex="1">
          <mxGeometry x="430" y="92" width="78" height="78" as="geometry" />
        </mxCell>
        <mxCell id="S0oxVMoBzNu8I96My73Q-6" value="3.5. updates" style="edgeStyle=orthogonalEdgeStyle;rounded=0;orthogonalLoop=1;jettySize=auto;html=1;" parent="6Gwo3R0m3KVYFX8MA8DT-1" source="S0oxVMoBzNu8I96My73Q-3" target="4SkeucJqfWYVToXLk232-5" edge="1">
          <mxGeometry x="-0.0066" relative="1" as="geometry">
            <mxPoint as="offset" />
          </mxGeometry>
        </mxCell>
        <mxCell id="S0oxVMoBzNu8I96My73Q-3" value="AWS Glue&lt;br&gt;Crawler" style="sketch=0;outlineConnect=0;fontColor=#232F3E;gradientColor=none;fillColor=#8C4FFF;strokeColor=none;dashed=0;verticalLabelPosition=bottom;verticalAlign=top;align=center;html=1;fontSize=12;fontStyle=0;aspect=fixed;pointerEvents=1;shape=mxgraph.aws4.glue_crawlers;" parent="6Gwo3R0m3KVYFX8MA8DT-1" vertex="1">
          <mxGeometry x="760" y="91" width="78" height="78" as="geometry" />
        </mxCell>
        <mxCell id="PeOlyhXK3bLlOopTgPjd-5" value="3.2. invokes" style="edgeStyle=orthogonalEdgeStyle;rounded=0;orthogonalLoop=1;jettySize=auto;html=1;" parent="6Gwo3R0m3KVYFX8MA8DT-1" source="PeOlyhXK3bLlOopTgPjd-4" target="S0oxVMoBzNu8I96My73Q-3" edge="1">
          <mxGeometry relative="1" as="geometry">
            <mxPoint as="offset" />
          </mxGeometry>
        </mxCell>
        <mxCell id="PeOlyhXK3bLlOopTgPjd-4" value="AWS Glue&lt;br&gt;Workflow" style="sketch=0;points=[[0,0,0],[0.25,0,0],[0.5,0,0],[0.75,0,0],[1,0,0],[0,1,0],[0.25,1,0],[0.5,1,0],[0.75,1,0],[1,1,0],[0,0.25,0],[0,0.5,0],[0,0.75,0],[1,0.25,0],[1,0.5,0],[1,0.75,0]];outlineConnect=0;fontColor=#232F3E;fillColor=#8C4FFF;strokeColor=#ffffff;dashed=0;verticalLabelPosition=bottom;verticalAlign=top;align=center;html=1;fontSize=12;fontStyle=0;aspect=fixed;shape=mxgraph.aws4.resourceIcon;resIcon=mxgraph.aws4.glue;" parent="6Gwo3R0m3KVYFX8MA8DT-1" vertex="1">
          <mxGeometry x="590" y="92" width="78" height="78" as="geometry" />
        </mxCell>
        <mxCell id="S0oxVMoBzNu8I96My73Q-4" value="3.1. invokes" style="edgeStyle=orthogonalEdgeStyle;rounded=0;orthogonalLoop=1;jettySize=auto;html=1;" parent="6Gwo3R0m3KVYFX8MA8DT-1" source="S0oxVMoBzNu8I96My73Q-1" target="PeOlyhXK3bLlOopTgPjd-4" edge="1">
          <mxGeometry relative="1" as="geometry">
            <mxPoint x="600" y="131" as="targetPoint" />
            <mxPoint as="offset" />
          </mxGeometry>
        </mxCell>
        <mxCell id="6Gwo3R0m3KVYFX8MA8DT-2" value="SDF AWS Account" style="points=[[0,0],[0.25,0],[0.5,0],[0.75,0],[1,0],[1,0.25],[1,0.5],[1,0.75],[1,1],[0.75,1],[0.5,1],[0.25,1],[0,1],[0,0.75],[0,0.5],[0,0.25]];outlineConnect=0;gradientColor=none;html=1;whiteSpace=wrap;fontSize=12;fontStyle=0;container=1;pointerEvents=0;collapsible=0;recursiveResize=0;shape=mxgraph.aws4.group;grIcon=mxgraph.aws4.group_aws_cloud_alt;strokeColor=#232F3E;fillColor=none;verticalAlign=top;align=left;spacingLeft=30;fontColor=#232F3E;dashed=0;" parent="1" vertex="1">
          <mxGeometry x="-800" y="-200" width="1040" height="310" as="geometry" />
        </mxCell>
        <mxCell id="uXFnmU4obD2Urvxa8qfT-4" value="" style="fillColor=none;strokeColor=#5A6C86;dashed=1;verticalAlign=top;fontStyle=0;fontColor=#5A6C86;whiteSpace=wrap;html=1;" parent="6Gwo3R0m3KVYFX8MA8DT-2" vertex="1">
          <mxGeometry x="270" y="50" width="290" height="230" as="geometry" />
        </mxCell>
        <mxCell id="4SkeucJqfWYVToXLk232-1" value="AWS DataZone" style="sketch=0;points=[[0,0,0],[0.25,0,0],[0.5,0,0],[0.75,0,0],[1,0,0],[0,1,0],[0.25,1,0],[0.5,1,0],[0.75,1,0],[1,1,0],[0,0.25,0],[0,0.5,0],[0,0.75,0],[1,0.25,0],[1,0.5,0],[1,0.75,0]];outlineConnect=0;fontColor=#232F3E;fillColor=#8C4FFF;strokeColor=#ffffff;dashed=0;verticalLabelPosition=bottom;verticalAlign=top;align=center;html=1;fontSize=12;fontStyle=0;aspect=fixed;shape=mxgraph.aws4.resourceIcon;resIcon=mxgraph.aws4.datazone;" parent="6Gwo3R0m3KVYFX8MA8DT-2" vertex="1">
          <mxGeometry x="270" y="50" width="60" height="60" as="geometry" />
        </mxCell>
        <mxCell id="4SkeucJqfWYVToXLk232-2" value="Business Catalog" style="sketch=0;outlineConnect=0;fontColor=#232F3E;gradientColor=none;fillColor=#8C4FFF;strokeColor=none;dashed=0;verticalLabelPosition=bottom;verticalAlign=top;align=center;html=1;fontSize=12;fontStyle=0;aspect=fixed;pointerEvents=1;shape=mxgraph.aws4.datazone_business_data_catalog;" parent="6Gwo3R0m3KVYFX8MA8DT-2" vertex="1">
          <mxGeometry x="310" y="150" width="71" height="78" as="geometry" />
        </mxCell>
        <mxCell id="4SkeucJqfWYVToXLk232-4" value="Data Projects" style="sketch=0;outlineConnect=0;fontColor=#232F3E;gradientColor=none;fillColor=#8C4FFF;strokeColor=none;dashed=0;verticalLabelPosition=bottom;verticalAlign=top;align=center;html=1;fontSize=12;fontStyle=0;aspect=fixed;pointerEvents=1;shape=mxgraph.aws4.datazone_data_projects;" parent="6Gwo3R0m3KVYFX8MA8DT-2" vertex="1">
          <mxGeometry x="440" y="150" width="78" height="78" as="geometry" />
        </mxCell>
        <mxCell id="ajKniDUpmoyZVTgsi-Vn-1" value="&amp;nbsp;Producer UI" style="fillColor=none;strokeColor=#5A6C86;dashed=1;verticalAlign=top;fontStyle=0;fontColor=#5A6C86;whiteSpace=wrap;html=1;align=left;" parent="6Gwo3R0m3KVYFX8MA8DT-2" vertex="1">
          <mxGeometry x="59" y="110" width="100" height="90" as="geometry" />
        </mxCell>
        <mxCell id="ajKniDUpmoyZVTgsi-Vn-2" value="1.3. registers&lt;br&gt;data source" style="edgeStyle=orthogonalEdgeStyle;rounded=0;orthogonalLoop=1;jettySize=auto;html=1;entryX=0.003;entryY=0.474;entryDx=0;entryDy=0;entryPerimeter=0;" parent="6Gwo3R0m3KVYFX8MA8DT-2" source="ajKniDUpmoyZVTgsi-Vn-1" target="uXFnmU4obD2Urvxa8qfT-4" edge="1">
          <mxGeometry x="0.0012" relative="1" as="geometry">
            <Array as="points">
              <mxPoint x="220" y="159" />
              <mxPoint x="220" y="159" />
            </Array>
            <mxPoint as="offset" />
          </mxGeometry>
        </mxCell>
        <mxCell id="41mr032aBYkz0Gp1hhgW-2" value="1.1. configures&lt;br&gt;credentials" style="edgeStyle=orthogonalEdgeStyle;rounded=0;orthogonalLoop=1;jettySize=auto;html=1;" parent="1" source="ajKniDUpmoyZVTgsi-Vn-1" target="PeOlyhXK3bLlOopTgPjd-2" edge="1">
          <mxGeometry x="-0.7719" relative="1" as="geometry">
            <Array as="points">
              <mxPoint x="-700" y="-230" />
              <mxPoint x="-700" y="-230" />
            </Array>
            <mxPoint as="offset" />
          </mxGeometry>
        </mxCell>
        <mxCell id="41mr032aBYkz0Gp1hhgW-3" value="2.1. updates&lt;br&gt;data store" style="edgeStyle=orthogonalEdgeStyle;rounded=0;orthogonalLoop=1;jettySize=auto;html=1;" parent="1" source="41mr032aBYkz0Gp1hhgW-1" target="uXFnmU4obD2Urvxa8qfT-1" edge="1">
          <mxGeometry x="-0.8889" relative="1" as="geometry">
            <Array as="points">
              <mxPoint x="-1000" y="-480" />
              <mxPoint x="-530" y="-480" />
            </Array>
            <mxPoint as="offset" />
          </mxGeometry>
        </mxCell>
        <mxCell id="41mr032aBYkz0Gp1hhgW-4" style="edgeStyle=orthogonalEdgeStyle;rounded=0;orthogonalLoop=1;jettySize=auto;html=1;jumpStyle=arc;" parent="1" source="41mr032aBYkz0Gp1hhgW-1" target="S0oxVMoBzNu8I96My73Q-1" edge="1">
          <mxGeometry relative="1" as="geometry">
            <Array as="points">
              <mxPoint x="-351" y="-220" />
            </Array>
          </mxGeometry>
        </mxCell>
        <mxCell id="41mr032aBYkz0Gp1hhgW-5" value="2.2. completion&lt;br&gt;events" style="edgeLabel;html=1;align=center;verticalAlign=middle;resizable=0;points=[];" parent="41mr032aBYkz0Gp1hhgW-4" vertex="1" connectable="0">
          <mxGeometry x="-0.8949" relative="1" as="geometry">
            <mxPoint x="22" as="offset" />
          </mxGeometry>
        </mxCell>
        <mxCell id="41mr032aBYkz0Gp1hhgW-1" value="&amp;nbsp;Data Producers" style="fillColor=none;strokeColor=#5A6C86;dashed=1;verticalAlign=top;fontStyle=0;fontColor=#5A6C86;whiteSpace=wrap;html=1;align=left;" parent="1" vertex="1">
          <mxGeometry x="-1040" y="-270" width="100" height="90" as="geometry" />
        </mxCell>
        <mxCell id="YNWqZxCN-waiVmn9ZMZa-1" value="1.2. registers table" style="edgeStyle=orthogonalEdgeStyle;rounded=0;orthogonalLoop=1;jettySize=auto;html=1;" parent="1" source="ajKniDUpmoyZVTgsi-Vn-1" target="4SkeucJqfWYVToXLk232-5" edge="1">
          <mxGeometry x="-0.729" y="10" relative="1" as="geometry">
            <Array as="points">
              <mxPoint x="-680" y="-170" />
              <mxPoint x="166" y="-170" />
            </Array>
            <mxPoint as="offset" />
          </mxGeometry>
        </mxCell>
      </root>
    </mxGraphModel>
  </diagram>
  <diagram id="KxVr5Au4wm4JFJPsXEnK" name="access control">
    <mxGraphModel dx="3088" dy="1955" grid="1" gridSize="10" guides="1" tooltips="1" connect="1" arrows="1" fold="1" page="1" pageScale="1" pageWidth="827" pageHeight="1169" math="0" shadow="0">
      <root>
        <mxCell id="0" />
        <mxCell id="1" parent="0" />
        <mxCell id="YQpQ2hrvygxUDDMaHTAJ-1" value="" style="fillColor=none;strokeColor=#5A6C86;dashed=1;verticalAlign=top;fontStyle=0;fontColor=#5A6C86;whiteSpace=wrap;html=1;" vertex="1" parent="1">
          <mxGeometry x="-570" y="-510" width="450" height="200" as="geometry" />
        </mxCell>
        <mxCell id="k2aoJN-A08_gubO9cRFj-6" value="SDF AWS Account" style="points=[[0,0],[0.25,0],[0.5,0],[0.75,0],[1,0],[1,0.25],[1,0.5],[1,0.75],[1,1],[0.75,1],[0.5,1],[0.25,1],[0,1],[0,0.75],[0,0.5],[0,0.25]];outlineConnect=0;gradientColor=none;html=1;whiteSpace=wrap;fontSize=12;fontStyle=0;container=1;pointerEvents=0;collapsible=0;recursiveResize=0;shape=mxgraph.aws4.group;grIcon=mxgraph.aws4.group_aws_cloud_alt;strokeColor=#232F3E;fillColor=none;verticalAlign=top;align=left;spacingLeft=30;fontColor=#232F3E;dashed=0;" vertex="1" parent="1">
          <mxGeometry x="-860" y="-880" width="860" height="688" as="geometry" />
        </mxCell>
        <mxCell id="k2aoJN-A08_gubO9cRFj-15" value="Amazon Cognito" style="sketch=0;points=[[0,0,0],[0.25,0,0],[0.5,0,0],[0.75,0,0],[1,0,0],[0,1,0],[0.25,1,0],[0.5,1,0],[0.75,1,0],[1,1,0],[0,0.25,0],[0,0.5,0],[0,0.75,0],[1,0.25,0],[1,0.5,0],[1,0.75,0]];outlineConnect=0;fontColor=#232F3E;fillColor=#DD344C;strokeColor=#ffffff;dashed=0;verticalLabelPosition=bottom;verticalAlign=top;align=center;html=1;fontSize=12;fontStyle=0;aspect=fixed;shape=mxgraph.aws4.resourceIcon;resIcon=mxgraph.aws4.cognito;" vertex="1" parent="k2aoJN-A08_gubO9cRFj-6">
          <mxGeometry x="300" y="20" width="78" height="78" as="geometry" />
        </mxCell>
        <mxCell id="w7q-9l-51iwaQAOdABsy-1" value="Open Metadata" style="outlineConnect=0;dashed=0;verticalLabelPosition=bottom;verticalAlign=top;align=center;html=1;shape=mxgraph.aws3.worker;fillColor=#D9A741;gradientColor=none;" vertex="1" parent="k2aoJN-A08_gubO9cRFj-6">
          <mxGeometry x="303.5" y="256" width="71" height="80" as="geometry" />
        </mxCell>
        <mxCell id="vCQKzS3Sy33Brg_B9srr-6" style="edgeStyle=orthogonalEdgeStyle;rounded=0;orthogonalLoop=1;jettySize=auto;html=1;exitX=1;exitY=0.5;exitDx=0;exitDy=0;exitPerimeter=0;" edge="1" parent="k2aoJN-A08_gubO9cRFj-6" source="IV_uXWebw-Yh8AJDx5qF-1" target="w7q-9l-51iwaQAOdABsy-1">
          <mxGeometry relative="1" as="geometry">
            <Array as="points">
              <mxPoint x="221" y="217" />
              <mxPoint x="221" y="296" />
            </Array>
          </mxGeometry>
        </mxCell>
        <mxCell id="vCQKzS3Sy33Brg_B9srr-7" value="3.2 Authorize access" style="edgeLabel;html=1;align=center;verticalAlign=middle;resizable=0;points=[];" vertex="1" connectable="0" parent="vCQKzS3Sy33Brg_B9srr-6">
          <mxGeometry x="0.0741" y="3" relative="1" as="geometry">
            <mxPoint x="-16" y="-14" as="offset" />
          </mxGeometry>
        </mxCell>
        <mxCell id="ByJEIsC-t2-4Fzp2G4zW-2" style="edgeStyle=orthogonalEdgeStyle;rounded=0;orthogonalLoop=1;jettySize=auto;html=1;" edge="1" parent="k2aoJN-A08_gubO9cRFj-6" source="IV_uXWebw-Yh8AJDx5qF-1" target="vGNKw-8Oi0GgRxzTVwzE-20">
          <mxGeometry relative="1" as="geometry">
            <Array as="points">
              <mxPoint x="99" y="610" />
              <mxPoint x="370" y="610" />
            </Array>
          </mxGeometry>
        </mxCell>
        <mxCell id="ByJEIsC-t2-4Fzp2G4zW-3" value="5.Publish Product Access Request" style="edgeLabel;html=1;align=center;verticalAlign=middle;resizable=0;points=[];" vertex="1" connectable="0" parent="ByJEIsC-t2-4Fzp2G4zW-2">
          <mxGeometry x="0.7879" y="-2" relative="1" as="geometry">
            <mxPoint x="-165" y="-12" as="offset" />
          </mxGeometry>
        </mxCell>
        <mxCell id="IV_uXWebw-Yh8AJDx5qF-1" value="Access Control&amp;nbsp;" style="sketch=0;points=[[0,0,0],[0.25,0,0],[0.5,0,0],[0.75,0,0],[1,0,0],[0,1,0],[0.25,1,0],[0.5,1,0],[0.75,1,0],[1,1,0],[0,0.25,0],[0,0.5,0],[0,0.75,0],[1,0.25,0],[1,0.5,0],[1,0.75,0]];gradientDirection=north;outlineConnect=0;fontColor=#232F3E;gradientColor=none;fillColor=#1E262E;strokeColor=#ffffff;dashed=0;verticalLabelPosition=bottom;verticalAlign=top;align=center;html=1;fontSize=12;fontStyle=0;aspect=fixed;shape=mxgraph.aws4.resourceIcon;resIcon=mxgraph.aws4.general;" vertex="1" parent="k2aoJN-A08_gubO9cRFj-6">
          <mxGeometry x="60" y="178" width="78" height="78" as="geometry" />
        </mxCell>
        <mxCell id="vCQKzS3Sy33Brg_B9srr-3" style="edgeStyle=orthogonalEdgeStyle;rounded=0;orthogonalLoop=1;jettySize=auto;html=1;exitX=0.5;exitY=0;exitDx=0;exitDy=0;exitPerimeter=0;entryX=0;entryY=0.5;entryDx=0;entryDy=0;entryPerimeter=0;" edge="1" parent="k2aoJN-A08_gubO9cRFj-6" source="IV_uXWebw-Yh8AJDx5qF-1" target="k2aoJN-A08_gubO9cRFj-15">
          <mxGeometry relative="1" as="geometry">
            <Array as="points">
              <mxPoint x="99" y="60" />
            </Array>
          </mxGeometry>
        </mxCell>
        <mxCell id="vCQKzS3Sy33Brg_B9srr-5" value="2. Get Credentials" style="edgeLabel;html=1;align=center;verticalAlign=middle;resizable=0;points=[];" vertex="1" connectable="0" parent="vCQKzS3Sy33Brg_B9srr-3">
          <mxGeometry x="0.0286" y="-4" relative="1" as="geometry">
            <mxPoint x="35" y="6" as="offset" />
          </mxGeometry>
        </mxCell>
        <mxCell id="YQpQ2hrvygxUDDMaHTAJ-5" value="Data Users" style="sketch=0;outlineConnect=0;fontColor=#232F3E;gradientColor=none;fillColor=#8C4FFF;strokeColor=none;dashed=0;verticalLabelPosition=bottom;verticalAlign=top;align=center;html=1;fontSize=12;fontStyle=0;aspect=fixed;pointerEvents=1;shape=mxgraph.aws4.datazone_data_portal;" vertex="1" parent="k2aoJN-A08_gubO9cRFj-6">
          <mxGeometry x="320" y="470" width="70" height="70" as="geometry" />
        </mxCell>
        <mxCell id="YQpQ2hrvygxUDDMaHTAJ-6" value="IAM Identity center" style="sketch=0;points=[[0,0,0],[0.25,0,0],[0.5,0,0],[0.75,0,0],[1,0,0],[0,1,0],[0.25,1,0],[0.5,1,0],[0.75,1,0],[1,1,0],[0,0.25,0],[0,0.5,0],[0,0.75,0],[1,0.25,0],[1,0.5,0],[1,0.75,0]];outlineConnect=0;fontColor=#232F3E;fillColor=#DD344C;strokeColor=#ffffff;dashed=0;verticalLabelPosition=bottom;verticalAlign=top;align=center;html=1;fontSize=12;fontStyle=0;aspect=fixed;shape=mxgraph.aws4.resourceIcon;resIcon=mxgraph.aws4.single_sign_on;" vertex="1" parent="k2aoJN-A08_gubO9cRFj-6">
          <mxGeometry x="600" y="462" width="78" height="78" as="geometry" />
        </mxCell>
        <mxCell id="vGNKw-8Oi0GgRxzTVwzE-3" value="Amazon&lt;br&gt;Verified Permissions" style="sketch=0;points=[[0,0,0],[0.25,0,0],[0.5,0,0],[0.75,0,0],[1,0,0],[0,1,0],[0.25,1,0],[0.5,1,0],[0.75,1,0],[1,1,0],[0,0.25,0],[0,0.5,0],[0,0.75,0],[1,0.25,0],[1,0.5,0],[1,0.75,0]];outlineConnect=0;fontColor=#232F3E;fillColor=#DD344C;strokeColor=#ffffff;dashed=0;verticalLabelPosition=bottom;verticalAlign=top;align=center;html=1;fontSize=12;fontStyle=0;aspect=fixed;shape=mxgraph.aws4.resourceIcon;resIcon=mxgraph.aws4.verified_permissions;" vertex="1" parent="k2aoJN-A08_gubO9cRFj-6">
          <mxGeometry x="300" y="130" width="78" height="78" as="geometry" />
        </mxCell>
        <mxCell id="vGNKw-8Oi0GgRxzTVwzE-4" style="edgeStyle=orthogonalEdgeStyle;rounded=0;orthogonalLoop=1;jettySize=auto;html=1;entryX=0;entryY=0.5;entryDx=0;entryDy=0;entryPerimeter=0;" edge="1" parent="k2aoJN-A08_gubO9cRFj-6" source="IV_uXWebw-Yh8AJDx5qF-1" target="vGNKw-8Oi0GgRxzTVwzE-3">
          <mxGeometry relative="1" as="geometry" />
        </mxCell>
        <mxCell id="vGNKw-8Oi0GgRxzTVwzE-5" value="3.1 Authorize access" style="edgeLabel;html=1;align=center;verticalAlign=middle;resizable=0;points=[];" vertex="1" connectable="0" parent="vGNKw-8Oi0GgRxzTVwzE-4">
          <mxGeometry x="0.1333" y="-1" relative="1" as="geometry">
            <mxPoint as="offset" />
          </mxGeometry>
        </mxCell>
        <mxCell id="vGNKw-8Oi0GgRxzTVwzE-20" value="Event Bridge" style="sketch=0;points=[[0,0,0],[0.25,0,0],[0.5,0,0],[0.75,0,0],[1,0,0],[0,1,0],[0.25,1,0],[0.5,1,0],[0.75,1,0],[1,1,0],[0,0.25,0],[0,0.5,0],[0,0.75,0],[1,0.25,0],[1,0.5,0],[1,0.75,0]];outlineConnect=0;fontColor=#232F3E;fillColor=#E7157B;strokeColor=#ffffff;dashed=0;verticalLabelPosition=bottom;verticalAlign=top;align=center;html=1;fontSize=12;fontStyle=0;aspect=fixed;shape=mxgraph.aws4.resourceIcon;resIcon=mxgraph.aws4.eventbridge;" vertex="1" parent="k2aoJN-A08_gubO9cRFj-6">
          <mxGeometry x="369" y="640" width="78" height="78" as="geometry" />
        </mxCell>
        <mxCell id="ByJEIsC-t2-4Fzp2G4zW-25" style="edgeStyle=orthogonalEdgeStyle;rounded=0;orthogonalLoop=1;jettySize=auto;html=1;exitX=0;exitY=0.25;exitDx=0;exitDy=0;exitPerimeter=0;entryX=0;entryY=0.75;entryDx=0;entryDy=0;entryPerimeter=0;" edge="1" parent="k2aoJN-A08_gubO9cRFj-6" source="vGNKw-8Oi0GgRxzTVwzE-20" target="IV_uXWebw-Yh8AJDx5qF-1">
          <mxGeometry relative="1" as="geometry" />
        </mxCell>
        <mxCell id="ByJEIsC-t2-4Fzp2G4zW-26" value="9.1 Access Granted" style="edgeLabel;html=1;align=center;verticalAlign=middle;resizable=0;points=[];" vertex="1" connectable="0" parent="ByJEIsC-t2-4Fzp2G4zW-25">
          <mxGeometry x="-0.4534" relative="1" as="geometry">
            <mxPoint y="11" as="offset" />
          </mxGeometry>
        </mxCell>
        <mxCell id="I3LITiAZYA1XYdgTi3Um-1" style="edgeStyle=orthogonalEdgeStyle;rounded=0;orthogonalLoop=1;jettySize=auto;html=1;" edge="1" parent="1" source="XmaJe0DmapKr7CQpQzH--1" target="IV_uXWebw-Yh8AJDx5qF-1">
          <mxGeometry relative="1" as="geometry" />
        </mxCell>
        <mxCell id="I3LITiAZYA1XYdgTi3Um-2" value="1." style="edgeLabel;html=1;align=center;verticalAlign=middle;resizable=0;points=[];" vertex="1" connectable="0" parent="I3LITiAZYA1XYdgTi3Um-1">
          <mxGeometry x="-0.425" y="2" relative="1" as="geometry">
            <mxPoint as="offset" />
          </mxGeometry>
        </mxCell>
        <mxCell id="vCQKzS3Sy33Brg_B9srr-4" value="1.Resource access request" style="edgeLabel;html=1;align=center;verticalAlign=middle;resizable=0;points=[];" vertex="1" connectable="0" parent="I3LITiAZYA1XYdgTi3Um-1">
          <mxGeometry x="-0.35" y="2" relative="1" as="geometry">
            <mxPoint as="offset" />
          </mxGeometry>
        </mxCell>
        <mxCell id="XmaJe0DmapKr7CQpQzH--1" value="External Access Request" style="fillColor=none;strokeColor=#5A6C86;dashed=1;verticalAlign=middle;fontStyle=0;fontColor=#5A6C86;whiteSpace=wrap;html=1;align=center;" vertex="1" parent="1">
          <mxGeometry x="-1130" y="-708" width="100" height="90" as="geometry" />
        </mxCell>
        <mxCell id="YQpQ2hrvygxUDDMaHTAJ-2" value="AWS &lt;br&gt;DataZone" style="sketch=0;points=[[0,0,0],[0.25,0,0],[0.5,0,0],[0.75,0,0],[1,0,0],[0,1,0],[0.25,1,0],[0.5,1,0],[0.75,1,0],[1,1,0],[0,0.25,0],[0,0.5,0],[0,0.75,0],[1,0.25,0],[1,0.5,0],[1,0.75,0]];outlineConnect=0;fontColor=#232F3E;fillColor=#8C4FFF;strokeColor=#ffffff;dashed=0;verticalLabelPosition=bottom;verticalAlign=top;align=center;html=1;fontSize=12;fontStyle=0;aspect=fixed;shape=mxgraph.aws4.resourceIcon;resIcon=mxgraph.aws4.datazone;" vertex="1" parent="1">
          <mxGeometry x="-570" y="-510" width="60" height="60" as="geometry" />
        </mxCell>
        <mxCell id="YQpQ2hrvygxUDDMaHTAJ-4" value="Data Projects" style="sketch=0;outlineConnect=0;fontColor=#232F3E;gradientColor=none;fillColor=#8C4FFF;strokeColor=none;dashed=0;verticalLabelPosition=bottom;verticalAlign=top;align=center;html=1;fontSize=12;fontStyle=0;aspect=fixed;pointerEvents=1;shape=mxgraph.aws4.datazone_data_projects;" vertex="1" parent="1">
          <mxGeometry x="-400" y="-410" width="78" height="78" as="geometry" />
        </mxCell>
        <mxCell id="vCQKzS3Sy33Brg_B9srr-1" style="edgeStyle=orthogonalEdgeStyle;rounded=0;orthogonalLoop=1;jettySize=auto;html=1;entryX=0.007;entryY=0.439;entryDx=0;entryDy=0;entryPerimeter=0;" edge="1" parent="1" source="IV_uXWebw-Yh8AJDx5qF-1" target="YQpQ2hrvygxUDDMaHTAJ-1">
          <mxGeometry relative="1" as="geometry">
            <mxPoint x="-586.5" y="-491" as="targetPoint" />
            <Array as="points">
              <mxPoint x="-761" y="-422" />
            </Array>
          </mxGeometry>
        </mxCell>
        <mxCell id="vCQKzS3Sy33Brg_B9srr-2" value="4.Request resource access" style="edgeLabel;html=1;align=center;verticalAlign=middle;resizable=0;points=[];" vertex="1" connectable="0" parent="vCQKzS3Sy33Brg_B9srr-1">
          <mxGeometry x="0.4184" y="-1" relative="1" as="geometry">
            <mxPoint y="-11" as="offset" />
          </mxGeometry>
        </mxCell>
        <mxCell id="vGNKw-8Oi0GgRxzTVwzE-19" value="Producer AWS Account" style="points=[[0,0],[0.25,0],[0.5,0],[0.75,0],[1,0],[1,0.25],[1,0.5],[1,0.75],[1,1],[0.75,1],[0.5,1],[0.25,1],[0,1],[0,0.75],[0,0.5],[0,0.25]];outlineConnect=0;gradientColor=none;html=1;whiteSpace=wrap;fontSize=12;fontStyle=0;container=1;pointerEvents=0;collapsible=0;recursiveResize=0;shape=mxgraph.aws4.group;grIcon=mxgraph.aws4.group_aws_cloud_alt;strokeColor=#232F3E;fillColor=none;verticalAlign=top;align=left;spacingLeft=30;fontColor=#232F3E;dashed=0;" vertex="1" parent="1">
          <mxGeometry x="-860" y="-70" width="860" height="450" as="geometry" />
        </mxCell>
        <mxCell id="ByJEIsC-t2-4Fzp2G4zW-1" value="Data Product Connector" style="fillColor=none;strokeColor=#5A6C86;dashed=1;verticalAlign=middle;fontStyle=0;fontColor=#5A6C86;whiteSpace=wrap;html=1;align=center;" vertex="1" parent="vGNKw-8Oi0GgRxzTVwzE-19">
          <mxGeometry x="369" y="196" width="81" height="86" as="geometry" />
        </mxCell>
        <mxCell id="ByJEIsC-t2-4Fzp2G4zW-9" style="edgeStyle=orthogonalEdgeStyle;rounded=0;orthogonalLoop=1;jettySize=auto;html=1;exitX=0;exitY=1;exitDx=0;exitDy=0;exitPerimeter=0;entryX=0;entryY=0;entryDx=0;entryDy=0;" edge="1" parent="vGNKw-8Oi0GgRxzTVwzE-19" source="ByJEIsC-t2-4Fzp2G4zW-4" target="ByJEIsC-t2-4Fzp2G4zW-1">
          <mxGeometry relative="1" as="geometry">
            <Array as="points">
              <mxPoint x="369" y="100" />
              <mxPoint x="369" y="100" />
            </Array>
          </mxGeometry>
        </mxCell>
        <mxCell id="ByJEIsC-t2-4Fzp2G4zW-10" value="5.3 Publish &lt;br&gt;Product Access&lt;br&gt;&amp;nbsp;Request" style="edgeLabel;html=1;align=center;verticalAlign=middle;resizable=0;points=[];" vertex="1" connectable="0" parent="ByJEIsC-t2-4Fzp2G4zW-9">
          <mxGeometry x="0.1713" y="-3" relative="1" as="geometry">
            <mxPoint x="9" y="-21" as="offset" />
          </mxGeometry>
        </mxCell>
        <mxCell id="ByJEIsC-t2-4Fzp2G4zW-4" value="Event Bridge" style="sketch=0;points=[[0,0,0],[0.25,0,0],[0.5,0,0],[0.75,0,0],[1,0,0],[0,1,0],[0.25,1,0],[0.5,1,0],[0.75,1,0],[1,1,0],[0,0.25,0],[0,0.5,0],[0,0.75,0],[1,0.25,0],[1,0.5,0],[1,0.75,0]];outlineConnect=0;fontColor=#232F3E;fillColor=#E7157B;strokeColor=#ffffff;dashed=0;verticalLabelPosition=bottom;verticalAlign=top;align=center;html=1;fontSize=12;fontStyle=0;aspect=fixed;shape=mxgraph.aws4.resourceIcon;resIcon=mxgraph.aws4.eventbridge;" vertex="1" parent="vGNKw-8Oi0GgRxzTVwzE-19">
          <mxGeometry x="369" y="-40" width="78" height="78" as="geometry" />
        </mxCell>
        <mxCell id="ByJEIsC-t2-4Fzp2G4zW-11" value="AWS &lt;br&gt;Glue" style="sketch=0;points=[[0,0,0],[0.25,0,0],[0.5,0,0],[0.75,0,0],[1,0,0],[0,1,0],[0.25,1,0],[0.5,1,0],[0.75,1,0],[1,1,0],[0,0.25,0],[0,0.5,0],[0,0.75,0],[1,0.25,0],[1,0.5,0],[1,0.75,0]];outlineConnect=0;fontColor=#232F3E;fillColor=#8C4FFF;strokeColor=#ffffff;dashed=0;verticalLabelPosition=bottom;verticalAlign=top;align=center;html=1;fontSize=12;fontStyle=0;aspect=fixed;shape=mxgraph.aws4.resourceIcon;resIcon=mxgraph.aws4.glue;" vertex="1" parent="vGNKw-8Oi0GgRxzTVwzE-19">
          <mxGeometry x="150" y="81" width="78" height="78" as="geometry" />
        </mxCell>
        <mxCell id="ByJEIsC-t2-4Fzp2G4zW-16" style="edgeStyle=orthogonalEdgeStyle;rounded=0;orthogonalLoop=1;jettySize=auto;html=1;endArrow=none;endFill=0;startArrow=classic;startFill=1;" edge="1" parent="vGNKw-8Oi0GgRxzTVwzE-19" source="ByJEIsC-t2-4Fzp2G4zW-12" target="ByJEIsC-t2-4Fzp2G4zW-1">
          <mxGeometry relative="1" as="geometry" />
        </mxCell>
        <mxCell id="ByJEIsC-t2-4Fzp2G4zW-17" value="7.Create Credentials" style="edgeLabel;html=1;align=center;verticalAlign=middle;resizable=0;points=[];" vertex="1" connectable="0" parent="ByJEIsC-t2-4Fzp2G4zW-16">
          <mxGeometry x="-0.3617" y="2" relative="1" as="geometry">
            <mxPoint x="31" y="2" as="offset" />
          </mxGeometry>
        </mxCell>
        <mxCell id="ByJEIsC-t2-4Fzp2G4zW-12" value="Amazon RDS or&lt;br&gt;&amp;nbsp;other Data source&amp;nbsp;" style="sketch=0;points=[[0,0,0],[0.25,0,0],[0.5,0,0],[0.75,0,0],[1,0,0],[0,1,0],[0.25,1,0],[0.5,1,0],[0.75,1,0],[1,1,0],[0,0.25,0],[0,0.5,0],[0,0.75,0],[1,0.25,0],[1,0.5,0],[1,0.75,0]];outlineConnect=0;fontColor=#232F3E;fillColor=#C925D1;strokeColor=#ffffff;dashed=0;verticalLabelPosition=bottom;verticalAlign=top;align=center;html=1;fontSize=12;fontStyle=0;aspect=fixed;shape=mxgraph.aws4.resourceIcon;resIcon=mxgraph.aws4.aurora;" vertex="1" parent="vGNKw-8Oi0GgRxzTVwzE-19">
          <mxGeometry x="150" y="200" width="78" height="78" as="geometry" />
        </mxCell>
        <mxCell id="ByJEIsC-t2-4Fzp2G4zW-13" value="Amazon &lt;br&gt;Secret Manager" style="sketch=0;points=[[0,0,0],[0.25,0,0],[0.5,0,0],[0.75,0,0],[1,0,0],[0,1,0],[0.25,1,0],[0.5,1,0],[0.75,1,0],[1,1,0],[0,0.25,0],[0,0.5,0],[0,0.75,0],[1,0.25,0],[1,0.5,0],[1,0.75,0]];outlineConnect=0;fontColor=#232F3E;fillColor=#DD344C;strokeColor=#ffffff;dashed=0;verticalLabelPosition=bottom;verticalAlign=top;align=center;html=1;fontSize=12;fontStyle=0;aspect=fixed;shape=mxgraph.aws4.resourceIcon;resIcon=mxgraph.aws4.secrets_manager;" vertex="1" parent="vGNKw-8Oi0GgRxzTVwzE-19">
          <mxGeometry x="150" y="330" width="78" height="78" as="geometry" />
        </mxCell>
        <mxCell id="ByJEIsC-t2-4Fzp2G4zW-14" style="edgeStyle=orthogonalEdgeStyle;rounded=0;orthogonalLoop=1;jettySize=auto;html=1;entryX=1;entryY=0.5;entryDx=0;entryDy=0;entryPerimeter=0;exitX=0;exitY=0.25;exitDx=0;exitDy=0;" edge="1" parent="vGNKw-8Oi0GgRxzTVwzE-19" source="ByJEIsC-t2-4Fzp2G4zW-1" target="ByJEIsC-t2-4Fzp2G4zW-11">
          <mxGeometry relative="1" as="geometry">
            <Array as="points">
              <mxPoint x="369" y="220" />
              <mxPoint x="299" y="220" />
              <mxPoint x="299" y="120" />
            </Array>
          </mxGeometry>
        </mxCell>
        <mxCell id="ByJEIsC-t2-4Fzp2G4zW-15" value="6. Get Datasource&lt;br&gt;&amp;nbsp;details" style="edgeLabel;html=1;align=center;verticalAlign=middle;resizable=0;points=[];" vertex="1" connectable="0" parent="ByJEIsC-t2-4Fzp2G4zW-14">
          <mxGeometry x="-0.5614" y="1" relative="1" as="geometry">
            <mxPoint x="-38" y="-121" as="offset" />
          </mxGeometry>
        </mxCell>
        <mxCell id="ByJEIsC-t2-4Fzp2G4zW-18" style="edgeStyle=orthogonalEdgeStyle;rounded=0;orthogonalLoop=1;jettySize=auto;html=1;exitX=0;exitY=0.75;exitDx=0;exitDy=0;entryX=1;entryY=0.5;entryDx=0;entryDy=0;entryPerimeter=0;" edge="1" parent="vGNKw-8Oi0GgRxzTVwzE-19" source="ByJEIsC-t2-4Fzp2G4zW-1" target="ByJEIsC-t2-4Fzp2G4zW-13">
          <mxGeometry relative="1" as="geometry" />
        </mxCell>
        <mxCell id="ByJEIsC-t2-4Fzp2G4zW-20" value="8. Store Credentials &amp;amp; &lt;br&gt;Grant access to&lt;br&gt;&amp;nbsp;SDF Account&amp;nbsp;" style="edgeLabel;html=1;align=center;verticalAlign=middle;resizable=0;points=[];" vertex="1" connectable="0" parent="ByJEIsC-t2-4Fzp2G4zW-18">
          <mxGeometry x="0.6072" y="-1" relative="1" as="geometry">
            <mxPoint x="13" y="32" as="offset" />
          </mxGeometry>
        </mxCell>
        <mxCell id="ByJEIsC-t2-4Fzp2G4zW-21" style="edgeStyle=orthogonalEdgeStyle;rounded=0;orthogonalLoop=1;jettySize=auto;html=1;exitX=1;exitY=0;exitDx=0;exitDy=0;entryX=1;entryY=1;entryDx=0;entryDy=0;entryPerimeter=0;" edge="1" parent="vGNKw-8Oi0GgRxzTVwzE-19" source="ByJEIsC-t2-4Fzp2G4zW-1" target="ByJEIsC-t2-4Fzp2G4zW-4">
          <mxGeometry relative="1" as="geometry" />
        </mxCell>
        <mxCell id="ByJEIsC-t2-4Fzp2G4zW-22" value="9. Publish &lt;br&gt;Access Granted" style="edgeLabel;html=1;align=center;verticalAlign=middle;resizable=0;points=[];" vertex="1" connectable="0" parent="ByJEIsC-t2-4Fzp2G4zW-21">
          <mxGeometry x="0.0559" y="-3" relative="1" as="geometry">
            <mxPoint as="offset" />
          </mxGeometry>
        </mxCell>
        <mxCell id="ByJEIsC-t2-4Fzp2G4zW-7" style="edgeStyle=orthogonalEdgeStyle;rounded=0;orthogonalLoop=1;jettySize=auto;html=1;exitX=0;exitY=1;exitDx=0;exitDy=0;exitPerimeter=0;entryX=0;entryY=0;entryDx=0;entryDy=0;entryPerimeter=0;" edge="1" parent="1" source="vGNKw-8Oi0GgRxzTVwzE-20" target="ByJEIsC-t2-4Fzp2G4zW-4">
          <mxGeometry relative="1" as="geometry" />
        </mxCell>
        <mxCell id="ByJEIsC-t2-4Fzp2G4zW-8" value="5.1 Access Request" style="edgeLabel;html=1;align=center;verticalAlign=middle;resizable=0;points=[];" vertex="1" connectable="0" parent="ByJEIsC-t2-4Fzp2G4zW-7">
          <mxGeometry x="-0.0385" y="-2" relative="1" as="geometry">
            <mxPoint x="-57" as="offset" />
          </mxGeometry>
        </mxCell>
        <mxCell id="ByJEIsC-t2-4Fzp2G4zW-23" style="edgeStyle=orthogonalEdgeStyle;rounded=0;orthogonalLoop=1;jettySize=auto;html=1;exitX=1;exitY=0;exitDx=0;exitDy=0;exitPerimeter=0;entryX=1;entryY=1;entryDx=0;entryDy=0;entryPerimeter=0;" edge="1" parent="1" source="ByJEIsC-t2-4Fzp2G4zW-4" target="vGNKw-8Oi0GgRxzTVwzE-20">
          <mxGeometry relative="1" as="geometry" />
        </mxCell>
        <mxCell id="ByJEIsC-t2-4Fzp2G4zW-24" value="9.1 Access Granted" style="edgeLabel;html=1;align=center;verticalAlign=middle;resizable=0;points=[];" vertex="1" connectable="0" parent="ByJEIsC-t2-4Fzp2G4zW-23">
          <mxGeometry x="-0.2692" y="-3" relative="1" as="geometry">
            <mxPoint x="49" as="offset" />
          </mxGeometry>
        </mxCell>
        <mxCell id="ByJEIsC-t2-4Fzp2G4zW-27" style="edgeStyle=orthogonalEdgeStyle;rounded=0;orthogonalLoop=1;jettySize=auto;html=1;exitX=0.5;exitY=1;exitDx=0;exitDy=0;exitPerimeter=0;entryX=0;entryY=0.75;entryDx=0;entryDy=0;" edge="1" parent="1" source="IV_uXWebw-Yh8AJDx5qF-1" target="YQpQ2hrvygxUDDMaHTAJ-1">
          <mxGeometry relative="1" as="geometry" />
        </mxCell>
        <mxCell id="ByJEIsC-t2-4Fzp2G4zW-28" value="10. Grant resource access" style="edgeLabel;html=1;align=center;verticalAlign=middle;resizable=0;points=[];" vertex="1" connectable="0" parent="ByJEIsC-t2-4Fzp2G4zW-27">
          <mxGeometry x="0.5165" y="3" relative="1" as="geometry">
            <mxPoint as="offset" />
          </mxGeometry>
        </mxCell>
      </root>
    </mxGraphModel>
  </diagram>
  <diagram id="qqdO2iz8bUBR-Hfi6cUZ" name="data quality">
    <mxGraphModel dx="3088" dy="1955" grid="1" gridSize="10" guides="1" tooltips="1" connect="1" arrows="1" fold="1" page="1" pageScale="1" pageWidth="827" pageHeight="1169" math="0" shadow="0">
      <root>
        <mxCell id="0" />
        <mxCell id="1" parent="0" />
        <mxCell id="_lQcS1DaTxCTza2Q6GSD-2" value="SDF AWS Account" style="points=[[0,0],[0.25,0],[0.5,0],[0.75,0],[1,0],[1,0.25],[1,0.5],[1,0.75],[1,1],[0.75,1],[0.5,1],[0.25,1],[0,1],[0,0.75],[0,0.5],[0,0.25]];outlineConnect=0;gradientColor=none;html=1;whiteSpace=wrap;fontSize=12;fontStyle=0;container=1;pointerEvents=0;collapsible=0;recursiveResize=0;shape=mxgraph.aws4.group;grIcon=mxgraph.aws4.group_aws_cloud_alt;strokeColor=#232F3E;fillColor=none;verticalAlign=top;align=left;spacingLeft=30;fontColor=#232F3E;dashed=0;" vertex="1" parent="1">
          <mxGeometry x="-870" y="-890" width="500" height="540" as="geometry" />
        </mxCell>
        <mxCell id="_lQcS1DaTxCTza2Q6GSD-4" value="Open Metadata" style="outlineConnect=0;dashed=0;verticalLabelPosition=bottom;verticalAlign=top;align=center;html=1;shape=mxgraph.aws3.worker;fillColor=#D9A741;gradientColor=none;" vertex="1" parent="_lQcS1DaTxCTza2Q6GSD-2">
          <mxGeometry x="310" y="170" width="71" height="80" as="geometry" />
        </mxCell>
        <mxCell id="_lQcS1DaTxCTza2Q6GSD-5" style="edgeStyle=orthogonalEdgeStyle;rounded=0;orthogonalLoop=1;jettySize=auto;html=1;exitX=1;exitY=0.5;exitDx=0;exitDy=0;exitPerimeter=0;" edge="1" parent="_lQcS1DaTxCTza2Q6GSD-2">
          <mxGeometry relative="1" as="geometry">
            <mxPoint x="148" y="189" as="sourcePoint" />
            <mxPoint x="310" y="189" as="targetPoint" />
          </mxGeometry>
        </mxCell>
        <mxCell id="_lQcS1DaTxCTza2Q6GSD-6" value="2. Run Test Suit" style="edgeLabel;html=1;align=center;verticalAlign=middle;resizable=0;points=[];" vertex="1" connectable="0" parent="_lQcS1DaTxCTza2Q6GSD-5">
          <mxGeometry x="0.0741" y="3" relative="1" as="geometry">
            <mxPoint x="-15" y="-14" as="offset" />
          </mxGeometry>
        </mxCell>
        <mxCell id="_kELhMZNLvmMrCSJ-C_Q-4" style="edgeStyle=orthogonalEdgeStyle;rounded=0;orthogonalLoop=1;jettySize=auto;html=1;exitX=0.5;exitY=0;exitDx=0;exitDy=0;exitPerimeter=0;entryX=0;entryY=0.5;entryDx=0;entryDy=0;" edge="1" parent="_lQcS1DaTxCTza2Q6GSD-2" source="_lQcS1DaTxCTza2Q6GSD-7" target="_kELhMZNLvmMrCSJ-C_Q-3">
          <mxGeometry relative="1" as="geometry" />
        </mxCell>
        <mxCell id="_kELhMZNLvmMrCSJ-C_Q-5" value="0.Get Credentials" style="edgeLabel;html=1;align=center;verticalAlign=middle;resizable=0;points=[];" vertex="1" connectable="0" parent="_kELhMZNLvmMrCSJ-C_Q-4">
          <mxGeometry x="0.1544" y="-1" relative="1" as="geometry">
            <mxPoint as="offset" />
          </mxGeometry>
        </mxCell>
        <mxCell id="_lQcS1DaTxCTza2Q6GSD-7" value="Data Quality" style="sketch=0;points=[[0,0,0],[0.25,0,0],[0.5,0,0],[0.75,0,0],[1,0,0],[0,1,0],[0.25,1,0],[0.5,1,0],[0.75,1,0],[1,1,0],[0,0.25,0],[0,0.5,0],[0,0.75,0],[1,0.25,0],[1,0.5,0],[1,0.75,0]];gradientDirection=north;outlineConnect=0;fontColor=#232F3E;gradientColor=none;fillColor=#1E262E;strokeColor=#ffffff;dashed=0;verticalLabelPosition=bottom;verticalAlign=top;align=center;html=1;fontSize=12;fontStyle=0;aspect=fixed;shape=mxgraph.aws4.resourceIcon;resIcon=mxgraph.aws4.general;" vertex="1" parent="_lQcS1DaTxCTza2Q6GSD-2">
          <mxGeometry x="70" y="171" width="78" height="78" as="geometry" />
        </mxCell>
        <mxCell id="OG_RoWDSd0RIk8k0Tg5Y-1" style="edgeStyle=orthogonalEdgeStyle;rounded=0;orthogonalLoop=1;jettySize=auto;html=1;exitX=1;exitY=0.5;exitDx=0;exitDy=0;exitPerimeter=0;" edge="1" parent="_lQcS1DaTxCTza2Q6GSD-2">
          <mxGeometry relative="1" as="geometry">
            <mxPoint x="148" y="223" as="sourcePoint" />
            <mxPoint x="310" y="223" as="targetPoint" />
          </mxGeometry>
        </mxCell>
        <mxCell id="OG_RoWDSd0RIk8k0Tg5Y-2" value="3. Get Test Results" style="edgeLabel;html=1;align=center;verticalAlign=middle;resizable=0;points=[];" vertex="1" connectable="0" parent="OG_RoWDSd0RIk8k0Tg5Y-1">
          <mxGeometry x="0.0741" y="3" relative="1" as="geometry">
            <mxPoint x="-15" y="-14" as="offset" />
          </mxGeometry>
        </mxCell>
        <mxCell id="nGuUWf_jnXzXOBGI81F2-5" value="Amazon&lt;br&gt;Event Bridge" style="sketch=0;points=[[0,0,0],[0.25,0,0],[0.5,0,0],[0.75,0,0],[1,0,0],[0,1,0],[0.25,1,0],[0.5,1,0],[0.75,1,0],[1,1,0],[0,0.25,0],[0,0.5,0],[0,0.75,0],[1,0.25,0],[1,0.5,0],[1,0.75,0]];outlineConnect=0;fontColor=#232F3E;fillColor=#E7157B;strokeColor=#ffffff;dashed=0;verticalLabelPosition=bottom;verticalAlign=top;align=center;html=1;fontSize=12;fontStyle=0;aspect=fixed;shape=mxgraph.aws4.resourceIcon;resIcon=mxgraph.aws4.eventbridge;" vertex="1" parent="_lQcS1DaTxCTza2Q6GSD-2">
          <mxGeometry x="306.5" y="400" width="78" height="78" as="geometry" />
        </mxCell>
        <mxCell id="_kELhMZNLvmMrCSJ-C_Q-1" style="edgeStyle=orthogonalEdgeStyle;rounded=0;orthogonalLoop=1;jettySize=auto;html=1;exitX=1;exitY=0.75;exitDx=0;exitDy=0;exitPerimeter=0;entryX=0;entryY=0.5;entryDx=0;entryDy=0;entryPerimeter=0;" edge="1" parent="_lQcS1DaTxCTza2Q6GSD-2" source="_lQcS1DaTxCTza2Q6GSD-7" target="nGuUWf_jnXzXOBGI81F2-5">
          <mxGeometry relative="1" as="geometry">
            <Array as="points">
              <mxPoint x="180" y="230" />
              <mxPoint x="180" y="440" />
            </Array>
          </mxGeometry>
        </mxCell>
        <mxCell id="_kELhMZNLvmMrCSJ-C_Q-2" value="5.Publish completion" style="edgeLabel;html=1;align=center;verticalAlign=middle;resizable=0;points=[];" vertex="1" connectable="0" parent="_kELhMZNLvmMrCSJ-C_Q-1">
          <mxGeometry x="0.7139" relative="1" as="geometry">
            <mxPoint x="-54" y="-10" as="offset" />
          </mxGeometry>
        </mxCell>
        <mxCell id="_kELhMZNLvmMrCSJ-C_Q-3" value="Access Control" style="fillColor=none;strokeColor=#5A6C86;dashed=1;verticalAlign=top;fontStyle=0;fontColor=#5A6C86;whiteSpace=wrap;html=1;align=left;" vertex="1" parent="_lQcS1DaTxCTza2Q6GSD-2">
          <mxGeometry x="310" y="50" width="100" height="100" as="geometry" />
        </mxCell>
        <mxCell id="KkTvQbSkpM4RLbhogtdR-2" style="edgeStyle=orthogonalEdgeStyle;rounded=0;orthogonalLoop=1;jettySize=auto;html=1;exitX=1;exitY=0.75;exitDx=0;exitDy=0;exitPerimeter=0;entryX=0;entryY=0.5;entryDx=0;entryDy=0;entryPerimeter=0;" edge="1" parent="_lQcS1DaTxCTza2Q6GSD-2" source="_lQcS1DaTxCTza2Q6GSD-7">
          <mxGeometry relative="1" as="geometry">
            <mxPoint x="307" y="311" as="targetPoint" />
            <Array as="points">
              <mxPoint x="180" y="230" />
              <mxPoint x="180" y="311" />
            </Array>
          </mxGeometry>
        </mxCell>
        <mxCell id="KkTvQbSkpM4RLbhogtdR-3" value="4. Store test results" style="edgeLabel;html=1;align=center;verticalAlign=middle;resizable=0;points=[];" vertex="1" connectable="0" parent="KkTvQbSkpM4RLbhogtdR-2">
          <mxGeometry x="0.501" y="4" relative="1" as="geometry">
            <mxPoint x="-16" y="-7" as="offset" />
          </mxGeometry>
        </mxCell>
        <mxCell id="awVesAVq5KrFbY_4M7p6-1" value="AWS Glue&lt;br&gt;Data Catalog" style="sketch=0;outlineConnect=0;fontColor=#232F3E;gradientColor=none;fillColor=#8C4FFF;strokeColor=none;dashed=0;verticalLabelPosition=bottom;verticalAlign=top;align=center;html=1;fontSize=12;fontStyle=0;aspect=fixed;pointerEvents=1;shape=mxgraph.aws4.glue_data_catalog;" vertex="1" parent="_lQcS1DaTxCTza2Q6GSD-2">
          <mxGeometry x="309" y="280" width="72" height="78" as="geometry" />
        </mxCell>
        <mxCell id="KHoesPkhKyjrniJuvUv9-9" value="Data Producer AWS Account" style="points=[[0,0],[0.25,0],[0.5,0],[0.75,0],[1,0],[1,0.25],[1,0.5],[1,0.75],[1,1],[0.75,1],[0.5,1],[0.25,1],[0,1],[0,0.75],[0,0.5],[0,0.25]];outlineConnect=0;gradientColor=none;html=1;whiteSpace=wrap;fontSize=12;fontStyle=0;container=1;pointerEvents=0;collapsible=0;recursiveResize=0;shape=mxgraph.aws4.group;grIcon=mxgraph.aws4.group_aws_cloud_alt;strokeColor=#232F3E;fillColor=none;verticalAlign=top;align=left;spacingLeft=30;fontColor=#232F3E;dashed=0;" vertex="1" parent="1">
          <mxGeometry x="-1300" y="-890" width="270" height="540" as="geometry" />
        </mxCell>
        <mxCell id="Rl9Bmm91U_yGUNS6P3gA-1" value="Amazon&lt;br&gt;Event Bridge" style="sketch=0;points=[[0,0,0],[0.25,0,0],[0.5,0,0],[0.75,0,0],[1,0,0],[0,1,0],[0.25,1,0],[0.5,1,0],[0.75,1,0],[1,1,0],[0,0.25,0],[0,0.5,0],[0,0.75,0],[1,0.25,0],[1,0.5,0],[1,0.75,0]];outlineConnect=0;fontColor=#232F3E;fillColor=#E7157B;strokeColor=#ffffff;dashed=0;verticalLabelPosition=bottom;verticalAlign=top;align=center;html=1;fontSize=12;fontStyle=0;aspect=fixed;shape=mxgraph.aws4.resourceIcon;resIcon=mxgraph.aws4.eventbridge;" vertex="1" parent="KHoesPkhKyjrniJuvUv9-9">
          <mxGeometry x="230" y="171" width="78" height="78" as="geometry" />
        </mxCell>
        <mxCell id="Rl9Bmm91U_yGUNS6P3gA-3" value="DataProducer" style="sketch=0;points=[[0,0,0],[0.25,0,0],[0.5,0,0],[0.75,0,0],[1,0,0],[0,1,0],[0.25,1,0],[0.5,1,0],[0.75,1,0],[1,1,0],[0,0.25,0],[0,0.5,0],[0,0.75,0],[1,0.25,0],[1,0.5,0],[1,0.75,0]];gradientDirection=north;outlineConnect=0;fontColor=#232F3E;gradientColor=none;fillColor=#1E262E;strokeColor=#ffffff;dashed=0;verticalLabelPosition=bottom;verticalAlign=top;align=center;html=1;fontSize=12;fontStyle=0;aspect=fixed;shape=mxgraph.aws4.resourceIcon;resIcon=mxgraph.aws4.general;" vertex="1" parent="KHoesPkhKyjrniJuvUv9-9">
          <mxGeometry x="40" y="171" width="78" height="78" as="geometry" />
        </mxCell>
        <mxCell id="Rl9Bmm91U_yGUNS6P3gA-4" style="edgeStyle=orthogonalEdgeStyle;rounded=0;orthogonalLoop=1;jettySize=auto;html=1;entryX=0;entryY=0.5;entryDx=0;entryDy=0;entryPerimeter=0;" edge="1" parent="KHoesPkhKyjrniJuvUv9-9" source="Rl9Bmm91U_yGUNS6P3gA-3" target="Rl9Bmm91U_yGUNS6P3gA-1">
          <mxGeometry relative="1" as="geometry" />
        </mxCell>
        <mxCell id="nGuUWf_jnXzXOBGI81F2-4" style="edgeStyle=orthogonalEdgeStyle;rounded=0;orthogonalLoop=1;jettySize=auto;html=1;exitX=0.5;exitY=1;exitDx=0;exitDy=0;" edge="1" parent="1" source="KHoesPkhKyjrniJuvUv9-9" target="KHoesPkhKyjrniJuvUv9-9">
          <mxGeometry relative="1" as="geometry" />
        </mxCell>
        <mxCell id="_lQcS1DaTxCTza2Q6GSD-13" style="edgeStyle=orthogonalEdgeStyle;rounded=0;orthogonalLoop=1;jettySize=auto;html=1;exitX=1;exitY=0.5;exitDx=0;exitDy=0;exitPerimeter=0;entryX=0;entryY=0.5;entryDx=0;entryDy=0;entryPerimeter=0;" edge="1" parent="1" source="Rl9Bmm91U_yGUNS6P3gA-1" target="Rl9Bmm91U_yGUNS6P3gA-2">
          <mxGeometry relative="1" as="geometry">
            <mxPoint x="-1030" y="-680" as="sourcePoint" />
          </mxGeometry>
        </mxCell>
        <mxCell id="_lQcS1DaTxCTza2Q6GSD-15" value="1.Publish Data Store&lt;br&gt;&amp;nbsp;completion event" style="edgeLabel;html=1;align=center;verticalAlign=middle;resizable=0;points=[];" vertex="1" connectable="0" parent="_lQcS1DaTxCTza2Q6GSD-13">
          <mxGeometry x="-0.35" y="2" relative="1" as="geometry">
            <mxPoint x="-164" y="-19" as="offset" />
          </mxGeometry>
        </mxCell>
        <mxCell id="Rl9Bmm91U_yGUNS6P3gA-5" style="edgeStyle=orthogonalEdgeStyle;rounded=0;orthogonalLoop=1;jettySize=auto;html=1;" edge="1" parent="1" source="Rl9Bmm91U_yGUNS6P3gA-2" target="_lQcS1DaTxCTza2Q6GSD-7">
          <mxGeometry relative="1" as="geometry" />
        </mxCell>
        <mxCell id="Rl9Bmm91U_yGUNS6P3gA-2" value="Amazon&lt;br&gt;Event Bridge" style="sketch=0;points=[[0,0,0],[0.25,0,0],[0.5,0,0],[0.75,0,0],[1,0,0],[0,1,0],[0.25,1,0],[0.5,1,0],[0.75,1,0],[1,1,0],[0,0.25,0],[0,0.5,0],[0,0.75,0],[1,0.25,0],[1,0.5,0],[1,0.75,0]];outlineConnect=0;fontColor=#232F3E;fillColor=#E7157B;strokeColor=#ffffff;dashed=0;verticalLabelPosition=bottom;verticalAlign=top;align=center;html=1;fontSize=12;fontStyle=0;aspect=fixed;shape=mxgraph.aws4.resourceIcon;resIcon=mxgraph.aws4.eventbridge;" vertex="1" parent="1">
          <mxGeometry x="-912" y="-719" width="78" height="78" as="geometry" />
        </mxCell>
      </root>
    </mxGraphModel>
  </diagram>
  <diagram id="FmmzwttZN4tuiG66ec-g" name="data lineage">
    <mxGraphModel dx="2261" dy="1955" grid="1" gridSize="10" guides="1" tooltips="1" connect="1" arrows="1" fold="1" page="1" pageScale="1" pageWidth="827" pageHeight="1169" math="0" shadow="0">
      <root>
        <mxCell id="0" />
        <mxCell id="1" parent="0" />
        <mxCell id="DK2SrGxoXMPGc5jyCMKI-7" value="Data Producer AWS Account" style="points=[[0,0],[0.25,0],[0.5,0],[0.75,0],[1,0],[1,0.25],[1,0.5],[1,0.75],[1,1],[0.75,1],[0.5,1],[0.25,1],[0,1],[0,0.75],[0,0.5],[0,0.25]];outlineConnect=0;gradientColor=none;html=1;whiteSpace=wrap;fontSize=12;fontStyle=0;container=1;pointerEvents=0;collapsible=0;recursiveResize=0;shape=mxgraph.aws4.group;grIcon=mxgraph.aws4.group_aws_cloud_alt;strokeColor=#232F3E;fillColor=none;verticalAlign=top;align=left;spacingLeft=30;fontColor=#232F3E;dashed=0;" vertex="1" parent="1">
          <mxGeometry x="-827" y="-620" width="810" height="328" as="geometry" />
        </mxCell>
        <mxCell id="DK2SrGxoXMPGc5jyCMKI-3" value="&amp;nbsp;Data Stores" style="fillColor=none;strokeColor=#5A6C86;dashed=1;verticalAlign=top;fontStyle=0;fontColor=#5A6C86;whiteSpace=wrap;html=1;align=left;" vertex="1" parent="DK2SrGxoXMPGc5jyCMKI-7">
          <mxGeometry x="433" y="90" width="100" height="100" as="geometry" />
        </mxCell>
        <mxCell id="DK2SrGxoXMPGc5jyCMKI-6" value="AWS Secrets Manager&lt;br&gt;&lt;i&gt;(data store credentials)&lt;/i&gt;" style="sketch=0;points=[[0,0,0],[0.25,0,0],[0.5,0,0],[0.75,0,0],[1,0,0],[0,1,0],[0.25,1,0],[0.5,1,0],[0.75,1,0],[1,1,0],[0,0.25,0],[0,0.5,0],[0,0.75,0],[1,0.25,0],[1,0.5,0],[1,0.75,0]];outlineConnect=0;fontColor=#232F3E;fillColor=#DD344C;strokeColor=#ffffff;dashed=0;verticalLabelPosition=bottom;verticalAlign=top;align=center;html=1;fontSize=12;fontStyle=0;aspect=fixed;shape=mxgraph.aws4.resourceIcon;resIcon=mxgraph.aws4.secrets_manager;" vertex="1" parent="DK2SrGxoXMPGc5jyCMKI-7">
          <mxGeometry x="277" y="90" width="78" height="78" as="geometry" />
        </mxCell>
        <mxCell id="8DzM_7BnRkDyar1VQ4m1-2" value="Amazon&lt;br&gt;Event Bridge" style="sketch=0;points=[[0,0,0],[0.25,0,0],[0.5,0,0],[0.75,0,0],[1,0,0],[0,1,0],[0.25,1,0],[0.5,1,0],[0.75,1,0],[1,1,0],[0,0.25,0],[0,0.5,0],[0,0.75,0],[1,0.25,0],[1,0.5,0],[1,0.75,0]];outlineConnect=0;fontColor=#232F3E;fillColor=#E7157B;strokeColor=#ffffff;dashed=0;verticalLabelPosition=bottom;verticalAlign=top;align=center;html=1;fontSize=12;fontStyle=0;aspect=fixed;shape=mxgraph.aws4.resourceIcon;resIcon=mxgraph.aws4.eventbridge;" vertex="1" parent="DK2SrGxoXMPGc5jyCMKI-7">
          <mxGeometry x="137" y="250" width="78" height="78" as="geometry" />
        </mxCell>
        <mxCell id="KBHiBOxrTBeHtTNWWCed-1" value="DataProducer" style="sketch=0;points=[[0,0,0],[0.25,0,0],[0.5,0,0],[0.75,0,0],[1,0,0],[0,1,0],[0.25,1,0],[0.5,1,0],[0.75,1,0],[1,1,0],[0,0.25,0],[0,0.5,0],[0,0.75,0],[1,0.25,0],[1,0.5,0],[1,0.75,0]];gradientDirection=north;outlineConnect=0;fontColor=#232F3E;gradientColor=none;fillColor=#1E262E;strokeColor=#ffffff;dashed=0;verticalLabelPosition=bottom;verticalAlign=top;align=center;html=1;fontSize=12;fontStyle=0;aspect=fixed;shape=mxgraph.aws4.resourceIcon;resIcon=mxgraph.aws4.general;" vertex="1" parent="DK2SrGxoXMPGc5jyCMKI-7">
          <mxGeometry x="137" y="90" width="78" height="78" as="geometry" />
        </mxCell>
        <mxCell id="8U2fn6OzH0tg-7qzQkhR-1" style="edgeStyle=orthogonalEdgeStyle;rounded=0;orthogonalLoop=1;jettySize=auto;html=1;exitX=0.5;exitY=1;exitDx=0;exitDy=0;exitPerimeter=0;entryX=0.5;entryY=0;entryDx=0;entryDy=0;entryPerimeter=0;" edge="1" parent="DK2SrGxoXMPGc5jyCMKI-7" source="KBHiBOxrTBeHtTNWWCed-1" target="8DzM_7BnRkDyar1VQ4m1-2">
          <mxGeometry relative="1" as="geometry" />
        </mxCell>
        <mxCell id="5I8uGMRGhEso3EnUAx40-1" value="1.Publish Data Store&lt;br style=&quot;border-color: var(--border-color);&quot;&gt;&amp;nbsp;completion event" style="edgeLabel;html=1;align=center;verticalAlign=middle;resizable=0;points=[];" vertex="1" connectable="0" parent="8U2fn6OzH0tg-7qzQkhR-1">
          <mxGeometry x="-0.2439" y="-3" relative="1" as="geometry">
            <mxPoint x="3" y="11" as="offset" />
          </mxGeometry>
        </mxCell>
        <mxCell id="l_pUDQ9M9LQrwlm8kQlC-3" value="Data&amp;nbsp; Sources" style="fillColor=none;strokeColor=#5A6C86;dashed=1;verticalAlign=top;fontStyle=0;fontColor=#5A6C86;whiteSpace=wrap;html=1;" vertex="1" parent="DK2SrGxoXMPGc5jyCMKI-7">
          <mxGeometry x="403" y="50" width="373" height="200" as="geometry" />
        </mxCell>
        <mxCell id="DK2SrGxoXMPGc5jyCMKI-8" value="AWS Glue&lt;br&gt;Data Catalog" style="sketch=0;outlineConnect=0;fontColor=#232F3E;gradientColor=none;fillColor=#8C4FFF;strokeColor=none;dashed=0;verticalLabelPosition=bottom;verticalAlign=top;align=center;html=1;fontSize=12;fontStyle=0;aspect=fixed;pointerEvents=1;shape=mxgraph.aws4.glue_data_catalog;" vertex="1" parent="DK2SrGxoXMPGc5jyCMKI-7">
          <mxGeometry x="627" y="90" width="72" height="78" as="geometry" />
        </mxCell>
        <mxCell id="DK2SrGxoXMPGc5jyCMKI-15" value="SDF AWS Account" style="points=[[0,0],[0.25,0],[0.5,0],[0.75,0],[1,0],[1,0.25],[1,0.5],[1,0.75],[1,1],[0.75,1],[0.5,1],[0.25,1],[0,1],[0,0.75],[0,0.5],[0,0.25]];outlineConnect=0;gradientColor=none;html=1;whiteSpace=wrap;fontSize=12;fontStyle=0;container=1;pointerEvents=0;collapsible=0;recursiveResize=0;shape=mxgraph.aws4.group;grIcon=mxgraph.aws4.group_aws_cloud_alt;strokeColor=#232F3E;fillColor=none;verticalAlign=top;align=left;spacingLeft=30;fontColor=#232F3E;dashed=0;" vertex="1" parent="1">
          <mxGeometry x="-826" y="-200" width="800" height="370" as="geometry" />
        </mxCell>
        <mxCell id="Sfejcdt-rg2KRlGEtgrf-2" style="edgeStyle=orthogonalEdgeStyle;rounded=0;orthogonalLoop=1;jettySize=auto;html=1;exitX=0;exitY=0.75;exitDx=0;exitDy=0;entryX=1;entryY=0.5;entryDx=0;entryDy=0;" edge="1" parent="DK2SrGxoXMPGc5jyCMKI-15" source="DK2SrGxoXMPGc5jyCMKI-20" target="Sfejcdt-rg2KRlGEtgrf-1">
          <mxGeometry relative="1" as="geometry" />
        </mxCell>
        <mxCell id="Sfejcdt-rg2KRlGEtgrf-3" value="0.Get Credentials" style="edgeLabel;html=1;align=center;verticalAlign=middle;resizable=0;points=[];" vertex="1" connectable="0" parent="Sfejcdt-rg2KRlGEtgrf-2">
          <mxGeometry x="-0.0449" y="-1" relative="1" as="geometry">
            <mxPoint as="offset" />
          </mxGeometry>
        </mxCell>
        <mxCell id="DK2SrGxoXMPGc5jyCMKI-20" value="data Lineage" style="fillColor=none;strokeColor=#5A6C86;dashed=1;verticalAlign=middle;fontStyle=0;fontColor=#5A6C86;whiteSpace=wrap;html=1;align=center;" vertex="1" parent="DK2SrGxoXMPGc5jyCMKI-15">
          <mxGeometry x="268" y="110" width="100" height="90" as="geometry" />
        </mxCell>
        <mxCell id="5I8uGMRGhEso3EnUAx40-3" style="edgeStyle=orthogonalEdgeStyle;rounded=0;orthogonalLoop=1;jettySize=auto;html=1;exitX=0.5;exitY=1;exitDx=0;exitDy=0;exitPerimeter=0;entryX=0;entryY=0.5;entryDx=0;entryDy=0;" edge="1" parent="DK2SrGxoXMPGc5jyCMKI-15" source="8DzM_7BnRkDyar1VQ4m1-1" target="DK2SrGxoXMPGc5jyCMKI-20">
          <mxGeometry relative="1" as="geometry" />
        </mxCell>
        <mxCell id="5I8uGMRGhEso3EnUAx40-4" value="1.Publish Data Store&lt;br style=&quot;border-color: var(--border-color);&quot;&gt;&amp;nbsp;completion event" style="edgeLabel;html=1;align=center;verticalAlign=middle;resizable=0;points=[];" vertex="1" connectable="0" parent="5I8uGMRGhEso3EnUAx40-3">
          <mxGeometry x="-0.2553" y="-1" relative="1" as="geometry">
            <mxPoint as="offset" />
          </mxGeometry>
        </mxCell>
        <mxCell id="8DzM_7BnRkDyar1VQ4m1-1" value="Amazon&lt;br&gt;Event Bridge" style="sketch=0;points=[[0,0,0],[0.25,0,0],[0.5,0,0],[0.75,0,0],[1,0,0],[0,1,0],[0.25,1,0],[0.5,1,0],[0.75,1,0],[1,1,0],[0,0.25,0],[0,0.5,0],[0,0.75,0],[1,0.25,0],[1,0.5,0],[1,0.75,0]];outlineConnect=0;fontColor=#232F3E;fillColor=#E7157B;strokeColor=#ffffff;dashed=0;verticalLabelPosition=bottom;verticalAlign=top;align=center;html=1;fontSize=12;fontStyle=0;aspect=fixed;shape=mxgraph.aws4.resourceIcon;resIcon=mxgraph.aws4.eventbridge;" vertex="1" parent="DK2SrGxoXMPGc5jyCMKI-15">
          <mxGeometry x="140" y="-30" width="78" height="78" as="geometry" />
        </mxCell>
        <mxCell id="l_pUDQ9M9LQrwlm8kQlC-1" value="Open Metadata" style="outlineConnect=0;dashed=0;verticalLabelPosition=bottom;verticalAlign=top;align=center;html=1;shape=mxgraph.aws3.worker;fillColor=#D9A741;gradientColor=none;" vertex="1" parent="DK2SrGxoXMPGc5jyCMKI-15">
          <mxGeometry x="552" y="116.25" width="72" height="77.5" as="geometry" />
        </mxCell>
        <mxCell id="l_pUDQ9M9LQrwlm8kQlC-2" style="edgeStyle=orthogonalEdgeStyle;rounded=0;orthogonalLoop=1;jettySize=auto;html=1;exitX=1;exitY=0.5;exitDx=0;exitDy=0;entryX=0;entryY=0.5;entryDx=0;entryDy=0;entryPerimeter=0;" edge="1" parent="DK2SrGxoXMPGc5jyCMKI-15" source="DK2SrGxoXMPGc5jyCMKI-20" target="l_pUDQ9M9LQrwlm8kQlC-1">
          <mxGeometry relative="1" as="geometry" />
        </mxCell>
        <mxCell id="l_pUDQ9M9LQrwlm8kQlC-4" value="3.Execute &lt;br&gt;Lineage&lt;br&gt;Collection" style="edgeLabel;html=1;align=center;verticalAlign=middle;resizable=0;points=[];" vertex="1" connectable="0" parent="l_pUDQ9M9LQrwlm8kQlC-2">
          <mxGeometry x="-0.08" y="2" relative="1" as="geometry">
            <mxPoint x="-6" y="-23" as="offset" />
          </mxGeometry>
        </mxCell>
        <mxCell id="l_pUDQ9M9LQrwlm8kQlC-10" style="edgeStyle=orthogonalEdgeStyle;rounded=0;orthogonalLoop=1;jettySize=auto;html=1;exitX=0;exitY=0.5;exitDx=0;exitDy=0;exitPerimeter=0;" edge="1" parent="DK2SrGxoXMPGc5jyCMKI-15" source="l_pUDQ9M9LQrwlm8kQlC-6" target="l_pUDQ9M9LQrwlm8kQlC-7">
          <mxGeometry relative="1" as="geometry" />
        </mxCell>
        <mxCell id="l_pUDQ9M9LQrwlm8kQlC-11" value="6. Publish Lineage Completion event&amp;nbsp;" style="edgeLabel;html=1;align=center;verticalAlign=middle;resizable=0;points=[];" vertex="1" connectable="0" parent="l_pUDQ9M9LQrwlm8kQlC-10">
          <mxGeometry x="0.1464" y="-1" relative="1" as="geometry">
            <mxPoint x="15" y="-18" as="offset" />
          </mxGeometry>
        </mxCell>
        <mxCell id="l_pUDQ9M9LQrwlm8kQlC-6" value="AWS Lambda&lt;br&gt;(Open Metadata hook)" style="outlineConnect=0;dashed=0;verticalLabelPosition=bottom;verticalAlign=top;align=center;html=1;shape=mxgraph.aws3.lambda_function;fillColor=#F58534;gradientColor=none;" vertex="1" parent="DK2SrGxoXMPGc5jyCMKI-15">
          <mxGeometry x="554.5" y="263" width="69" height="72" as="geometry" />
        </mxCell>
        <mxCell id="l_pUDQ9M9LQrwlm8kQlC-12" style="edgeStyle=orthogonalEdgeStyle;rounded=0;orthogonalLoop=1;jettySize=auto;html=1;exitX=0.5;exitY=0;exitDx=0;exitDy=0;exitPerimeter=0;entryX=0.5;entryY=1;entryDx=0;entryDy=0;" edge="1" parent="DK2SrGxoXMPGc5jyCMKI-15" source="l_pUDQ9M9LQrwlm8kQlC-7" target="DK2SrGxoXMPGc5jyCMKI-20">
          <mxGeometry relative="1" as="geometry" />
        </mxCell>
        <mxCell id="l_pUDQ9M9LQrwlm8kQlC-7" value="Amazon&lt;br&gt;Event Bridge" style="sketch=0;points=[[0,0,0],[0.25,0,0],[0.5,0,0],[0.75,0,0],[1,0,0],[0,1,0],[0.25,1,0],[0.5,1,0],[0.75,1,0],[1,1,0],[0,0.25,0],[0,0.5,0],[0,0.75,0],[1,0.25,0],[1,0.5,0],[1,0.75,0]];outlineConnect=0;fontColor=#232F3E;fillColor=#E7157B;strokeColor=#ffffff;dashed=0;verticalLabelPosition=bottom;verticalAlign=top;align=center;html=1;fontSize=12;fontStyle=0;aspect=fixed;shape=mxgraph.aws4.resourceIcon;resIcon=mxgraph.aws4.eventbridge;" vertex="1" parent="DK2SrGxoXMPGc5jyCMKI-15">
          <mxGeometry x="279" y="260" width="78" height="78" as="geometry" />
        </mxCell>
        <mxCell id="l_pUDQ9M9LQrwlm8kQlC-8" style="edgeStyle=orthogonalEdgeStyle;rounded=0;orthogonalLoop=1;jettySize=auto;html=1;exitX=0.5;exitY=1;exitDx=0;exitDy=0;exitPerimeter=0;entryX=0.5;entryY=0;entryDx=0;entryDy=0;entryPerimeter=0;" edge="1" parent="DK2SrGxoXMPGc5jyCMKI-15" source="l_pUDQ9M9LQrwlm8kQlC-1" target="l_pUDQ9M9LQrwlm8kQlC-6">
          <mxGeometry relative="1" as="geometry" />
        </mxCell>
        <mxCell id="l_pUDQ9M9LQrwlm8kQlC-9" value="5. Lineage import Complete" style="edgeLabel;html=1;align=center;verticalAlign=middle;resizable=0;points=[];" vertex="1" connectable="0" parent="l_pUDQ9M9LQrwlm8kQlC-8">
          <mxGeometry x="-0.0108" y="-1" relative="1" as="geometry">
            <mxPoint as="offset" />
          </mxGeometry>
        </mxCell>
        <mxCell id="Sfejcdt-rg2KRlGEtgrf-1" value="Access Control" style="fillColor=none;strokeColor=#5A6C86;dashed=1;verticalAlign=top;fontStyle=0;fontColor=#5A6C86;whiteSpace=wrap;html=1;align=left;" vertex="1" parent="DK2SrGxoXMPGc5jyCMKI-15">
          <mxGeometry x="6" y="137" width="84.5" height="80" as="geometry" />
        </mxCell>
        <mxCell id="DK2SrGxoXMPGc5jyCMKI-22" value="2. Get data source&lt;br&gt;credentials" style="edgeStyle=orthogonalEdgeStyle;rounded=0;orthogonalLoop=1;jettySize=auto;html=1;exitX=0.5;exitY=0;exitDx=0;exitDy=0;" edge="1" parent="1" source="DK2SrGxoXMPGc5jyCMKI-20" target="DK2SrGxoXMPGc5jyCMKI-6">
          <mxGeometry x="-0.116" relative="1" as="geometry">
            <Array as="points">
              <mxPoint x="-511" y="-90" />
            </Array>
            <mxPoint as="offset" />
          </mxGeometry>
        </mxCell>
        <mxCell id="5I8uGMRGhEso3EnUAx40-2" style="edgeStyle=orthogonalEdgeStyle;rounded=0;orthogonalLoop=1;jettySize=auto;html=1;exitX=0.5;exitY=1;exitDx=0;exitDy=0;exitPerimeter=0;" edge="1" parent="1" source="8DzM_7BnRkDyar1VQ4m1-2" target="8DzM_7BnRkDyar1VQ4m1-1">
          <mxGeometry relative="1" as="geometry" />
        </mxCell>
        <mxCell id="DK2SrGxoXMPGc5jyCMKI-27" value="4. Execute lineage&lt;br&gt;&amp;nbsp;Collection" style="edgeStyle=orthogonalEdgeStyle;rounded=0;orthogonalLoop=1;jettySize=auto;html=1;entryX=0.5;entryY=1;entryDx=0;entryDy=0;startArrow=classic;startFill=1;exitX=0.5;exitY=0;exitDx=0;exitDy=0;exitPerimeter=0;" edge="1" parent="1" source="l_pUDQ9M9LQrwlm8kQlC-1" target="l_pUDQ9M9LQrwlm8kQlC-3">
          <mxGeometry x="0.2354" relative="1" as="geometry">
            <Array as="points" />
            <mxPoint as="offset" />
          </mxGeometry>
        </mxCell>
      </root>
    </mxGraphModel>
  </diagram>
  <diagram id="PEOQOndXcJ5qFoVoyyIb" name="discoverability">
    <mxGraphModel dx="3088" dy="1955" grid="1" gridSize="10" guides="1" tooltips="1" connect="1" arrows="1" fold="1" page="1" pageScale="1" pageWidth="827" pageHeight="1169" math="0" shadow="0">
      <root>
        <mxCell id="0" />
        <mxCell id="1" parent="0" />
        <mxCell id="p2YQq3-IC5qpmT8k_fjE-1" value="SDF AWS Account" style="points=[[0,0],[0.25,0],[0.5,0],[0.75,0],[1,0],[1,0.25],[1,0.5],[1,0.75],[1,1],[0.75,1],[0.5,1],[0.25,1],[0,1],[0,0.75],[0,0.5],[0,0.25]];outlineConnect=0;gradientColor=none;html=1;whiteSpace=wrap;fontSize=12;fontStyle=0;container=1;pointerEvents=0;collapsible=0;recursiveResize=0;shape=mxgraph.aws4.group;grIcon=mxgraph.aws4.group_aws_cloud_alt;strokeColor=#232F3E;fillColor=none;verticalAlign=top;align=left;spacingLeft=30;fontColor=#232F3E;dashed=0;" vertex="1" parent="1">
          <mxGeometry x="-870" y="-890" width="500" height="540" as="geometry" />
        </mxCell>
        <mxCell id="p2YQq3-IC5qpmT8k_fjE-2" value="Open Metadata" style="outlineConnect=0;dashed=0;verticalLabelPosition=bottom;verticalAlign=top;align=center;html=1;shape=mxgraph.aws3.worker;fillColor=#D9A741;gradientColor=none;" vertex="1" parent="p2YQq3-IC5qpmT8k_fjE-1">
          <mxGeometry x="310" y="170" width="71" height="80" as="geometry" />
        </mxCell>
        <mxCell id="p2YQq3-IC5qpmT8k_fjE-3" style="edgeStyle=orthogonalEdgeStyle;rounded=0;orthogonalLoop=1;jettySize=auto;html=1;exitX=1;exitY=0.5;exitDx=0;exitDy=0;exitPerimeter=0;" edge="1" parent="p2YQq3-IC5qpmT8k_fjE-1">
          <mxGeometry relative="1" as="geometry">
            <mxPoint x="148" y="209.5" as="sourcePoint" />
            <mxPoint x="310" y="209.5" as="targetPoint" />
          </mxGeometry>
        </mxCell>
        <mxCell id="p2YQq3-IC5qpmT8k_fjE-4" value="2.Search entities in &lt;br&gt;open Metadata&amp;nbsp;" style="edgeLabel;html=1;align=center;verticalAlign=middle;resizable=0;points=[];" vertex="1" connectable="0" parent="p2YQq3-IC5qpmT8k_fjE-3">
          <mxGeometry x="0.0741" y="3" relative="1" as="geometry">
            <mxPoint x="-15" y="-14" as="offset" />
          </mxGeometry>
        </mxCell>
        <mxCell id="p2YQq3-IC5qpmT8k_fjE-5" style="edgeStyle=orthogonalEdgeStyle;rounded=0;orthogonalLoop=1;jettySize=auto;html=1;exitX=1;exitY=0.25;exitDx=0;exitDy=0;exitPerimeter=0;entryX=0;entryY=0.5;entryDx=0;entryDy=0;" edge="1" parent="p2YQq3-IC5qpmT8k_fjE-1" source="p2YQq3-IC5qpmT8k_fjE-7" target="p2YQq3-IC5qpmT8k_fjE-13">
          <mxGeometry relative="1" as="geometry">
            <Array as="points">
              <mxPoint x="160" y="191" />
              <mxPoint x="160" y="100" />
            </Array>
          </mxGeometry>
        </mxCell>
        <mxCell id="p2YQq3-IC5qpmT8k_fjE-6" value="0.Get Credentials" style="edgeLabel;html=1;align=center;verticalAlign=middle;resizable=0;points=[];" vertex="1" connectable="0" parent="p2YQq3-IC5qpmT8k_fjE-5">
          <mxGeometry x="0.1544" y="-1" relative="1" as="geometry">
            <mxPoint as="offset" />
          </mxGeometry>
        </mxCell>
        <mxCell id="p2YQq3-IC5qpmT8k_fjE-7" value="Discoverability" style="sketch=0;points=[[0,0,0],[0.25,0,0],[0.5,0,0],[0.75,0,0],[1,0,0],[0,1,0],[0.25,1,0],[0.5,1,0],[0.75,1,0],[1,1,0],[0,0.25,0],[0,0.5,0],[0,0.75,0],[1,0.25,0],[1,0.5,0],[1,0.75,0]];gradientDirection=north;outlineConnect=0;fontColor=#232F3E;gradientColor=none;fillColor=#1E262E;strokeColor=#ffffff;dashed=0;verticalLabelPosition=bottom;verticalAlign=top;align=center;html=1;fontSize=12;fontStyle=0;aspect=fixed;shape=mxgraph.aws4.resourceIcon;resIcon=mxgraph.aws4.general;" vertex="1" parent="p2YQq3-IC5qpmT8k_fjE-1">
          <mxGeometry x="70" y="171" width="78" height="78" as="geometry" />
        </mxCell>
        <mxCell id="p2YQq3-IC5qpmT8k_fjE-13" value="Access Control" style="fillColor=none;strokeColor=#5A6C86;dashed=1;verticalAlign=top;fontStyle=0;fontColor=#5A6C86;whiteSpace=wrap;html=1;align=left;" vertex="1" parent="p2YQq3-IC5qpmT8k_fjE-1">
          <mxGeometry x="303.25" y="60" width="84.5" height="80" as="geometry" />
        </mxCell>
        <mxCell id="p2YQq3-IC5qpmT8k_fjE-15" style="edgeStyle=orthogonalEdgeStyle;rounded=0;orthogonalLoop=1;jettySize=auto;html=1;exitX=1;exitY=0.75;exitDx=0;exitDy=0;exitPerimeter=0;entryX=0;entryY=0.5;entryDx=0;entryDy=0;entryPerimeter=0;" edge="1" parent="p2YQq3-IC5qpmT8k_fjE-1" source="p2YQq3-IC5qpmT8k_fjE-7" target="Uj2xjj9hrCNj6ZNaEFir-1">
          <mxGeometry relative="1" as="geometry">
            <Array as="points">
              <mxPoint x="160" y="230" />
              <mxPoint x="160" y="311" />
            </Array>
            <mxPoint x="307" y="311" as="targetPoint" />
          </mxGeometry>
        </mxCell>
        <mxCell id="p2YQq3-IC5qpmT8k_fjE-16" value="3. Search in datazone" style="edgeLabel;html=1;align=center;verticalAlign=middle;resizable=0;points=[];" vertex="1" connectable="0" parent="p2YQq3-IC5qpmT8k_fjE-15">
          <mxGeometry x="0.501" y="4" relative="1" as="geometry">
            <mxPoint x="-16" y="-7" as="offset" />
          </mxGeometry>
        </mxCell>
        <mxCell id="Uj2xjj9hrCNj6ZNaEFir-1" value="AWS &lt;br&gt;DataZone" style="sketch=0;points=[[0,0,0],[0.25,0,0],[0.5,0,0],[0.75,0,0],[1,0,0],[0,1,0],[0.25,1,0],[0.5,1,0],[0.75,1,0],[1,1,0],[0,0.25,0],[0,0.5,0],[0,0.75,0],[1,0.25,0],[1,0.5,0],[1,0.75,0]];outlineConnect=0;fontColor=#232F3E;fillColor=#8C4FFF;strokeColor=#ffffff;dashed=0;verticalLabelPosition=bottom;verticalAlign=top;align=center;html=1;fontSize=12;fontStyle=0;aspect=fixed;shape=mxgraph.aws4.resourceIcon;resIcon=mxgraph.aws4.datazone;" vertex="1" parent="p2YQq3-IC5qpmT8k_fjE-1">
          <mxGeometry x="315.5" y="280" width="60" height="60" as="geometry" />
        </mxCell>
        <mxCell id="p2YQq3-IC5qpmT8k_fjE-24" style="edgeStyle=orthogonalEdgeStyle;rounded=0;orthogonalLoop=1;jettySize=auto;html=1;" edge="1" parent="p2YQq3-IC5qpmT8k_fjE-1">
          <mxGeometry relative="1" as="geometry">
            <mxPoint x="-120" y="190" as="sourcePoint" />
            <mxPoint x="70" y="190" as="targetPoint" />
          </mxGeometry>
        </mxCell>
        <mxCell id="p2YQq3-IC5qpmT8k_fjE-27" value="1. Search request" style="edgeLabel;html=1;align=center;verticalAlign=middle;resizable=0;points=[];" vertex="1" connectable="0" parent="p2YQq3-IC5qpmT8k_fjE-24">
          <mxGeometry x="-1" y="-4" relative="1" as="geometry">
            <mxPoint x="50" y="-14" as="offset" />
          </mxGeometry>
        </mxCell>
        <mxCell id="Uj2xjj9hrCNj6ZNaEFir-3" style="edgeStyle=orthogonalEdgeStyle;rounded=0;orthogonalLoop=1;jettySize=auto;html=1;endArrow=none;endFill=0;startArrow=classic;startFill=1;" edge="1" parent="p2YQq3-IC5qpmT8k_fjE-1">
          <mxGeometry relative="1" as="geometry">
            <mxPoint x="-120" y="230" as="sourcePoint" />
            <mxPoint x="70" y="230" as="targetPoint" />
          </mxGeometry>
        </mxCell>
        <mxCell id="Uj2xjj9hrCNj6ZNaEFir-4" value="4. aggregated search results" style="edgeLabel;html=1;align=center;verticalAlign=middle;resizable=0;points=[];" vertex="1" connectable="0" parent="Uj2xjj9hrCNj6ZNaEFir-3">
          <mxGeometry x="-1" y="-4" relative="1" as="geometry">
            <mxPoint x="80" y="-14" as="offset" />
          </mxGeometry>
        </mxCell>
        <mxCell id="Uj2xjj9hrCNj6ZNaEFir-2" value="" style="sketch=0;outlineConnect=0;fontColor=#232F3E;gradientColor=none;fillColor=#232F3D;strokeColor=none;dashed=0;verticalLabelPosition=bottom;verticalAlign=top;align=center;html=1;fontSize=12;fontStyle=0;aspect=fixed;pointerEvents=1;shape=mxgraph.aws4.authenticated_user;" vertex="1" parent="1">
          <mxGeometry x="-1070" y="-730" width="78" height="78" as="geometry" />
        </mxCell>
      </root>
    </mxGraphModel>
  </diagram>
</mxfile>
